<?xml version="1.0" encoding="UTF-8"?>
<svg id="Layer_2" data-name="Layer 2" xmlns="http://www.w3.org/2000/svg" xmlns:xlink="http://www.w3.org/1999/xlink" viewBox="0 0 337 237">
  <defs>
    <style>
      .cls-1, .cls-2 {
        fill: none;
      }

      .cls-2 {
        clip-path: url(#clippath-1);
      }

      .cls-3 {
        fill: url(#Degradado_sin_nombre_44);
        filter: url(#outer-glow-1);
      }

      .cls-4 {
        fill: url(#Degradado_sin_nombre_41-3);
        stroke: #ffdbb6;
        stroke-miterlimit: 10;
      }

      .cls-5 {
        fill: url(#Degradado_sin_nombre_41);
      }

      .cls-6 {
        fill: url(#Degradado_sin_nombre_27);
      }

      .cls-7 {
        fill: url(#Degradado_sin_nombre_12);
      }

      .cls-8 {
        fill: url(#Degradado_sin_nombre_41-2);
      }

      .cls-9 {
        fill: url(#Degradado_sin_nombre_27-2);
      }
    </style>
    <linearGradient id="Degradado_sin_nombre_44" data-name="Degradado sin nombre 44" x1="168.39" y1="221.53" x2="168.39" y2="15.23" gradientUnits="userSpaceOnUse">
      <stop offset="0" stop-color="#ffdab6"/>
      <stop offset=".87" stop-color="#ffdab6"/>
      <stop offset="1" stop-color="#ffdab6"/>
    </linearGradient>
    <filter id="outer-glow-1" filterUnits="userSpaceOnUse">
      <feOffset dx="0" dy="0"/>
      <feGaussianBlur result="blur" stdDeviation="5"/>
      <feFlood flood-color="#c4c4c4" flood-opacity=".25"/>
      <feComposite in2="blur" operator="in"/>
      <feComposite in="SourceGraphic"/>
    </filter>
    <radialGradient id="Degradado_sin_nombre_12" data-name="Degradado sin nombre 12" cx="155.17" cy="28.87" fx="155.17" fy="28.87" r="133.39" gradientUnits="userSpaceOnUse">
      <stop offset="0" stop-color="#134b47"/>
      <stop offset=".4" stop-color="#114742"/>
      <stop offset=".84" stop-color="#0c3b35"/>
      <stop offset="1" stop-color="#0a362f"/>
    </radialGradient>
    <linearGradient id="Degradado_sin_nombre_41" data-name="Degradado sin nombre 41" x1="184.27" y1="118.38" x2="321.71" y2="118.38" gradientUnits="userSpaceOnUse">
      <stop offset="0" stop-color="#ffe6ca"/>
      <stop offset=".25" stop-color="#ffebd6"/>
      <stop offset=".62" stop-color="#fff0e2"/>
      <stop offset="1" stop-color="#fff2e6"/>
    </linearGradient>
    <linearGradient id="Degradado_sin_nombre_41-2" data-name="Degradado sin nombre 41" x1="15.06" x2="152.5" xlink:href="#Degradado_sin_nombre_41"/>
    <linearGradient id="Degradado_sin_nombre_41-3" data-name="Degradado sin nombre 41" x1="168.39" y1="221.53" x2="168.39" y2="105.97" xlink:href="#Degradado_sin_nombre_41"/>
    <clipPath id="clippath-1">
      <path class="cls-1" d="m147.13,113.55L15.06,221.53h306.65l-132.07-107.98c-12.37-10.11-30.14-10.11-42.51,0Z"/>
    </clipPath>
    <linearGradient id="Degradado_sin_nombre_27" data-name="Degradado sin nombre 27" x1="2692.06" y1="-1124.06" x2="2809.66" y2="-1124.06" gradientTransform="translate(786.96 -2718.22) rotate(126.06)" gradientUnits="userSpaceOnUse">
      <stop offset="0" stop-color="#bc783b"/>
      <stop offset=".1" stop-color="#c17d3f"/>
      <stop offset=".24" stop-color="#d08e4a"/>
      <stop offset=".4" stop-color="#eaa95e"/>
      <stop offset=".5" stop-color="#ffc06e"/>
      <stop offset=".59" stop-color="#f9bb6b"/>
      <stop offset=".7" stop-color="#eaad63"/>
      <stop offset=".82" stop-color="#d19656"/>
      <stop offset=".95" stop-color="#ae7643"/>
      <stop offset="1" stop-color="#a0693c"/>
    </linearGradient>
    <linearGradient id="Degradado_sin_nombre_27-2" data-name="Degradado sin nombre 27" x1="2703.71" y1="-1043.57" x2="2720.63" y2="-1043.57" gradientTransform="translate(2277.52 -1824.91) rotate(160.49)" xlink:href="#Degradado_sin_nombre_27"/>
  </defs>
  <g id="OBJECTS">
    <g>
      <rect class="cls-3" x="15.06" y="15.23" width="306.65" height="206.29"/>
      <rect class="cls-7" x="35.49" y="15.18" width="266.77" height="133.8"/>
      <path class="cls-5" d="m200.29,147l121.42,74.53V15.23l-121.42,74.53c-21.35,13.11-21.35,44.13,0,57.24Z"/>
      <path class="cls-8" d="m136.49,147L15.06,221.53V15.23l121.42,74.53c21.35,13.11,21.35,44.13,0,57.24Z"/>
      <path class="cls-4" d="m147.13,113.55L15.06,221.53h306.65l-132.07-107.98c-12.37-10.11-30.14-10.11-42.51,0Z"/>
      <g class="cls-2">
        <path class="cls-6" d="m117.95,242.95c.96-.2,1.8-.36,2.63-.56,1.43-.34,2.86-.79,3.89-1.89.59-.63,1.24-.95,2.06-1.16,2.36-.6,2.78-1.56,1.71-3.74-.32-.66-.56-1.44-1.42-1.75-.76,1.15-1.57,2.26-1.64,3.63-.09,1.58-.93,2.62-2.21,3.24-1.7.82-3.58,1.13-5.49,1.45-.38-1.19-.65-2.32-1.1-3.37-.45-1.04-1.08-2.01-1.64-3.04.65,0,1.25.06,1.83,0,1.2-.13,1.91-1.02,1.83-2.22-.06-1.05-.55-1.3-1.54-.88-1.1.47-2.21.94-3.36,1.28-.49.15-1.1.06-1.61-.07-3.87-1-7.7-2.21-11.6-3.03-3.82-.8-6.97-2.61-9.67-5.32-1.58-1.59-2.71-3.5-3.07-5.71-.58-3.61-.87-7.25-.8-10.91.02-1.23-.19-2.47-.29-3.7-.02-.21-.04-.42-.06-.63.09-.04.18-.08.27-.12.89,1.2,1.89,2.33,2.65,3.61,1.22,2.03,2.36,4.12,2.37,6.59,0,1.89-.2,3.8.98,5.42-1.55,1.26-1.85,1.81-1.57,2.68.27.82,1.23,1.44,2.43,1.49.14-.97.29-1.95.42-2.88,1.09.42,2.07.89,3.1,1.16,1.03.27,2.11.38,3.18.49.73.08,1.39.31,1.75.94.83,1.46,2.15,2.29,3.6,3,.59.29,1.15.67,1.91,1.13-.03-.54,0-.83-.06-1.1-.72-2.92-2.79-4.51-5.8-4.49-2.25,0-4.46-.16-6.45-1.37-1.71-1.04-2.99-2.33-2.73-4.55.03-.21,0-.43,0-.64.05-2.33-.4-4.55-1.59-6.56-.85-1.44-1.82-2.81-2.73-4.22-.17-.26-.33-.52-.5-.78.07-.06.13-.11.2-.17.32.32.67.61.96.96.58.7,1.1,1.43,1.67,2.13,3.52,4.33,8.02,6.3,13.62,5.65,1.05-.12,2.13-.07,3.18-.1.59,1.27,1.11,2.45,1.68,3.6,1.12,2.27,3.2,2.78,5.48,2.9.06,0,.12-.1.29-.26-.62-2.09-1.98-3.74-3.63-5.25.46,0,.86.07,1.25.17,1.58.43,3.15.89,4.72,1.31,1.64.44,3.3.6,4.98.35.24-.03.45-.21.67-.32-.86-.31-1.66-.36-2.46-.44-1.02-.1-2.07-.09-3.06-.34-2.38-.58-4.72-1.31-7.09-1.93-.91-.24-1.85-.42-2.78-.47-1.26-.08-2.53,0-4.1,0,1.93-1.51,3.71-2.79,5.06-4.66-2.19-.33-4.07.29-5.42,1.8-.62.7-1.15,1.5-1.66,2.29-.38.59-.84.83-1.52.64-.58-.16-1.17-.28-1.74-.49-2.91-1.05-5.32-2.79-7.14-5.31-1.27-1.77-2.83-3.23-4.59-4.49-.35-.25-.72-.49-1-.81-.29-.32-.48-.73-.71-1.1,2,.54,3.86.88,5.79.4-.02-.19,0-.29-.04-.35-.12-.17-.25-.34-.4-.49-1.66-1.69-3.74-2.2-6.02-2.04-.53.04-.87-.04-1.21-.48-3.04-3.93-6.69-7.27-10.39-10.55-.23-.2-.42-.45-.58-.63,4.43,1.08,8.85,2.16,13.35,3.26.09,1,.43,1.94,1.27,2.55.75.55,1.36,1.54,2.74,1.18-.57-1.1-1.06-2.05-1.64-3.16,1.15.35,2.09.53,2.94.9,2.44,1.08,4.31,2.93,6.26,4.7,1.01.91,1.42,1.87,1.17,3.28-.31,1.76,1.17,3.59,3.12,4.03-.34-1.37-.67-2.69-1.02-4.14,2.49,1.56,5.14,2.53,7.82,3.43.71.24,1.35.74,1.98,1.18,1.2.84,2.34,1.75,3.55,2.57,2.02,1.36,4.23,2.28,6.62,2.79.67.14,1.31.41,1.94.66.89.35,1.48.96,1.77,1.91.29.94.65,1.87,1.03,2.78.33.82.89,1.48,1.66,1.91.26.14.6.16,1.09.28-.63-1.41-1.23-2.52-2.31-3.32-.73-.54-.71-.56-.69-1.81.42.36.79.64,1.12.96.66.62,1.26,1.31,1.96,1.87.56.45,1.2.88,1.87,1.07.94.27,1.94.32,2.93.43.21.02.44-.09.71-.15-1.5-1.74-3.58-2.81-5.74-3.03-.37-.04-.82-.06-1.09-.27-1.13-.88-2.2-1.83-3.52-2.96,1.33.08,2.41.03,3.43.24,3.33.68,6.62,1.5,9.95,2.19,1.43.3,2.43.83,2.95,2.38.57,1.71,2.53,2.42,4.47,1.85-.69-.85-1.34-1.65-2-2.45.53-.05.93.1,1.34.18,1.98.39,3.95.86,5.95,1.11,1.06.13,1.68.57,1.99,1.5.19.56.28,1.16.38,1.75.07.42.03.86.11,1.28.15.77.48.97,1.3.86.65-.08.92-.44.84-1.18-.11-1.05-.59-1.87-1.55-2.38-.62-.33-.61-.35-.63-1.08,1.72.79,3.05,2.06,4.39,3.33.07.06.2.05.34.08-.14-.3-.25-.55-.39-.84.96-.07,1.83-.13,2.96-.21-1.43-1.42-2.91-1.93-4.54-1.79-1,.09-1.52-.42-2.34-1.09,2.64-.27,5.03-.27,7.43-.28,2.47,0,4.66,1.18,7.28,1.66-.52-.9-1.19-.98-1.76-1.23-.57-.25-1.14-.5-1.84-.81.55-.32.95-.56,1.34-.79.38-.23.76-.45,1.24-.74-2.14-.57-3.51-.36-5.07.66-.31.2-.68.4-1.03.41-2.71.07-5.41.11-8.12.13-.3,0-.61-.11-1.18-.22,1.48-.58,2.68-1.04,3.87-1.51.85-.33,1.7-.49,2.64-.47,1.87.05,3.59-.61,5.49-1.34-.43-.28-.64-.51-.9-.57-2.05-.52-4.01-.44-5.76.92-.3.23-.6.5-.95.64-1.34.57-2.7,1.13-4.06,1.65-1.99.76-4,.92-6.05.23-1.67-.56-3.36-1.08-5.05-1.55-2.57-.71-5.15-1.36-7.73-2.05-.29-.08-.56-.21-.84-.32,1.25-.11,2.44-.04,3.62.08,2.63.26,5.23.23,7.81-.43.5-.13,1.01-.26,1.52-.27.35,0,.8.08,1.05.3,1.8,1.56,3.89,1.66,6.08,1.28.26-.05.51-.19,1.01-.39-.93-.46-1.63-.81-2.53-1.26,1.68-.35,3.09-.8,4.31-1.89-1.39-.04-2.78-.08-4.16-.12,1.74-1.38,3.51-2.68,5.15-4.12,1.85-1.62,3.92-1.97,6.22-1.49,1.04,2.69,1.41,3.05,2.9,2.79-.18-.77-.37-1.53-.57-2.37,1.28.39,2.52.56,3.56,1.11,1.96,1.04,3.77.74,5.95-.18-.62-.25-.98-.46-1.36-.54-1.02-.2-2.05-.23-3.06.12-.55.19-1.04.2-1.56-.37,1.54-.47,2.79-1.25,4.19-2.38-2.65-.04-4.85.43-6.61,1.75-2.16-.32-4.13-.61-6.11-.89.03-.03.09-.14.19-.19,2.05-1.1,4.07-2.24,6.15-3.27,2.16-1.07,4.47-1.52,6.89-1.15,1.23.19,2.46.4,3.69.6,1.48.25,2.96.59,4.45.73.73.07,1.27.32,1.86.7.74.49,1.55.95,2.39,1.18.93.25,1.91.12,2.77-.94-1.17-.35-2.16-.65-3.16-.95.01-.09.02-.17.03-.26,1.52-.32,2.85-1.3,4.5-1.21.42.02.86-.08,1.28-.17,1.66-.36,2.85-1.43,4.25-2.61-1.68-.44-2.96.24-4.52.69,1.55-1.94,3.03-3.51,5.05-4.49,1.7-.83,3.44-.8,5.23-.32.03-.09.05-.18.08-.27-.44-.27-.89-.53-1.39-.83.76-.76,1.82-1.23,2.31-2.42-1.51.13-2.56.78-3.5,1.7-.35.34-.8.69-1.26.79-2.33.52-4.15,1.79-5.73,3.52-1.01,1.11-2.04,2.22-3.18,3.19-.7.59-1.59,1.07-2.47,1.32-1.19.34-2.45.42-3.68.58-.25.03-.52-.06-.78-.09,1.77-.76,2.55-2.45,3.9-3.55-.15-.13-.22-.23-.28-.23-.21,0-.42.01-.63.06-1.64.4-3.06,1.18-4.11,2.51-.69.87-1.42,1.08-2.45.73-.81-.27-1.67-.46-2.52-.54-1.7-.17-3.42-.25-5.13-.35-.27-.02-.54.02-1.13.06.79-.85,1.36-1.46,1.89-2.03,2.24.96,4.04.59,4.88-1.04-.97-.13-1.9-.26-2.99-.41,1.83-1.46,3.96-1.67,5.92-2.31-.02-.08-.04-.17-.07-.25-1.23.24-2.46.48-3.9.75.8-1.28,1.73-2.33,1.7-3.94-.73.45-1.31.89-1.94,1.19-1.37.65-2.03,1.67-1.88,3.19.06.54-.2.83-.58,1.18-1.12,1.06-2.16,2.2-3.24,3.3-.29.3-.59.66-.95.81-4.96,2.01-9.4,4.83-13.41,8.35-1.73,1.52-3.79,2.52-5.78,3.62-.1.05-.24.03-.44.05.08-.21.11-.39.2-.52,1.38-1.8,2.77-3.61,4.18-5.4.58-.73,1.31-1.13,2.29-1.25,2.16-.28,3.87-1.37,4.99-3.28.13-.23.19-.5.36-.97-1.18.35-2.13.63-3.08.91.15-.48.39-.83.69-1.1,1.11-1.02,2.22-2.04,3.36-3.02,1.7-1.46,3.47-2.81,5.73-3.42-.7.02-1.41.04-2.12.06.14-1.03.27-2.03.41-3.07-1.92.63-3.21,2.26-3.15,4.01.02.65-.16,1.06-.64,1.42-.31.23-.59.5-.88.76-1.5,1.35-3,2.7-4.5,4.04-.14.12-.3.22-.55.42.06-1.69.12-3.24-.34-5.07-.65,1.41-1.2,2.53-1.67,3.67-.43,1.05-.63,2.16-.36,3.28.12.49-.06.8-.35,1.16-1.41,1.73-2.8,3.48-4.17,5.24-1.25,1.6-2.73,2.85-4.7,3.47-.25.08-.52.08-.9.14,1.42-1.78,2.17-3.37,2.16-4.56-2.21,1.2-4.44,2.34-5.29,4.88-3.08-.13-6.03-.25-9.15-.37,1.04-.82,2.03-1.42,2.48-2.54-.15-.09-.21-.16-.29-.17-.13-.01-.26,0-.38.02-1.28.32-2.47.82-3.29,1.9-.44.58-1,.75-1.67.81-4.81.48-9.1-.88-12.95-3.69-2.71-1.98-5.33-4.06-7.98-6.11-.45-.35-.86-.76-1.29-1.14.05-.07.11-.14.16-.21,1.41.96,2.75,2.03,4.51,2.31,1.76.28,3.43-.13,5.41-.39-.39-.34-.53-.49-.7-.6-2.5-1.63-5.23-2.4-8.21-2.08-1.19.13-2.2-.11-3.12-.86-.3-.24-.62-.46-.94-.68-2.6-1.78-5.27-3.4-8.35-4.23-1.09-.3-2.16-.65-3.24-.97.17-.28.32-.35.47-.35.81-.02,1.63.02,2.44-.05.55-.05,1.13-.18,1.6-.44.31-.17.46-.64.68-.98-.31-.18-.59-.47-.92-.53-.8-.16-1.64-.12-2.42-.34-1.87-.52-3.57-.36-5.06.98-.45.41-.95.45-1.55.31-1.8-.41-3.62-.72-5.42-1.15-3.81-.9-7.52-2.16-11.15-3.62-.21-.08-.4-.21-.6-.31.01-.1.02-.19.04-.29,3.49.15,6.92-.23,10.26-1.03,1.4,2.54,3.42,3.4,5.65,1.72-1.02-.78-2.01-1.54-3.13-2.39.9-.28,1.66-.55,2.44-.76,2.53-.67,5.06-1.46,7.72-.88,1.7.37,3.42.76,4.91,1.73-.69,1.58-.33,3.01.93,3.62.71.34,1.47.65,2.37.38-.1-.45-.18-.8-.27-1.17,1.29.08,2.27,1.05,3.63.77-.71-.67-1.42-1.33-2.19-2.05,2.11-.16,4.07-.32,6.05-.47,1.24,2.07,2.6,2.78,4.72,2.37-.74-1.27-1.71-2.28-3.02-3.15,1.37-.48,2.57-.36,3.75-.15,1.82.32,3.62.74,5.43,1.1.29.06.64.24.94-.31-1.27-.38-2.46-.74-3.77-1.14.88-.64,1.89-.83,2.37-1.94-1.85-.31-3.51-.2-4.89,1.05-.38.35-.72.47-1.22.52-1.4.15-2.82.32-4.18.67-2.19.56-4.38.86-6.63.69-.87-.07-1.75-.21-2.55-.85.24-.11.34-.2.45-.21,2.64-.24,5.13-1.02,7.6-1.95,2.58-.97,5.18-1.88,7.75-2.86,2.74-1.05,5.57-1.37,8.49-1.18.59.04,1.01.23,1.41.72.81.99,1.33,2.1,1.73,3.29.17.49.3.99.52,1.46.09.2.41.5.52.46.23-.09.51-.34.56-.57.27-1.21.27-2.39-.51-3.46-.22-.3-.39-.63-.62-1.01,2.69.33,7.23,5.57,10.16,9.32-.88,3.37-.48,4.79,1.71,5.87.42-1.31.51-2.63.12-3.98,1.47.79,2.8,1.56,4.18,2.24,1.66.82,3.54,1.03,4.8.5-2.34-.27-4.3-.95-6.12-2-1.84-1.07-3.55-2.28-4.79-4.07,1.76.43,3.4.15,5.27-.41-2.21-1.79-4.42-2.85-7.11-2.46-.5.07-.89.15-1.27-.28-1.65-1.92-3.41-3.71-5.86-5.24,2.29-.34,4.33-.55,5.62-2.03,1,.3,1.87.49,2.68.83.83.35,1.6.83,2.47,1.29-.37-2.25-2.05-3.6-4.48-3.67-.35-.93-.43-1.8.3-2.63.61-.69.59-1.47.21-2.29-.75-1.62-3-3-4.82-2.9-.12,0-.24.11-.62.3.61.12.94.16,1.26.26,1.46.45,2.85,1.02,3.55,2.53.42.9.34,1.17-.56,1.94-2.21-2.13-4.48-2.25-5.87-.28.93.25,1.86.46,2.76.77.92.32,1.81.75,2.69,1.12.3,1.59-.06,2.4-1.38,3.11-.3.16-.62.29-.94.42-1.48.56-3.02.69-4.57.59-1.45-.09-2.9-.32-4.34-.47-.56-.06-1.12-.06-1.79-.09,1.96-2.31,1.98-2.36,2.09-3.55-1.9-.34-3.2.2-4.17,1.75-.25.4-.55.79-.72,1.22-.42,1.02-1.25,1.45-2.22,1.78-1.91.65-3.81,1.34-5.71,2.04-3.27,1.19-6.49,2.52-10,2.9-1.04.11-2.03.06-3-.42-.69-.34-1.45-.52-2.19-.75-.5-.15-1.02-.26-1.64-.41.88-.82,2.12-1,2.38-2.41-1.22.18-2.32.34-3.42.5.51-.63,1.08-1.08,1.7-1.44.7-.41,1.49-.69,2.17-1.14,1.2-.77,2.14-1.76,2.32-3.56-.85.31-1.49.53-2.11.78-1.6.64-2.76,1.7-3.3,3.39-.1.31-.33.6-.55.84-.73.78-1.47,1.56-2.25,2.3-.33.32-.71.67-1.13.78-3.19.89-6.36,1.89-9.59,2.55-4.42.89-8.87,1.42-13.35.07-1.79-.54-3.7-.77-5.57-.98-2.2-.24-4.13-1.02-5.96-2.25-3.05-2.05-6.32-3.67-9.94-4.47-.34-.08-.66-.23-1.1-.39,2.04-.71,3.89-1.35,5.76-1.98.19-.06.43-.07.62-.02.83.22,1.67.41,2.46.73,1.08.43,2.11.96,3.16,1.46,2.94,1.38,5.96,1.51,9.05.55.26-.08.48-.25.83-.45-.28-.22-.42-.38-.6-.47-1.48-.69-2.99-1.31-4.43-2.06-1.8-.93-3.69-1.4-5.69-1.46-.68-.02-1.35-.02-2.13-.03,2.97-2.12,12.71-2.05,16.89.06-.06,1.08-.21,2.23.69,3.12.84.82,1.85,1.13,3.22,1.11-.35-1.09-.64-2-.97-3.06.77.2,1.38.34,1.99.51,4.64,1.29,9.33,1.97,14.15,1.34.35-.05.78.08.97-.51-1.23-.36-2.41-.03-3.59-.03-1.2,0-2.41.06-3.6-.02-1.15-.08-2.3-.29-3.44-.51-1.18-.22-2.36-.5-3.52-.8-1.12-.29-2.28-.54-3.53-1.21,1.36-.34,2.44-.58,3.5-.9,1.11-.33,2.18-.82,3.3-1.12,2.19-.57,4.01-1.73,5.63-3.26.84-.8,1.7-1.58,2.58-2.34.61-.53,1.31-.92,2.09-1.12,1.16,2.22,3.26,3.13,5.37,2.37-.63-1.24-1.69-2.09-2.83-3.13.75-.04,1.3-.06,1.85-.1,1.03-.08,2.07-.08,3.07-.3,1.89-.41,3.36.23,4.64,1.54.45.46.88.96,1.39,1.34,1.57,1.13,2.94,2.69,5.22,2.32.69-.11,1.19.46,1.46,1.09.36.85.53,1.77.03,2.61-1.17,1.99-3.48,4.56-6.85,3.57-.42-.12-.87-.16-1.31-.24-.02.12-.04.23-.05.35,1.45,1.14,3.14,1.07,5.02.68-.85,1.41-1.31,2.73-.14,4.05.72-.5,1.37-1,2.07-1.4,1.18-.68,1.77-1.73,1.53-3.01-.27-1.45-.11-2.69.53-4.05.86-1.82-.65-4.84-3.14-4.3-.51.11-1.2-.12-1.69-.41-1.71-1.01-3.2-2.3-4.54-4.04,2.19.2,3.54-1.35,5.31-2.1-.14-.19-.2-.34-.3-.38-2.61-.89-5.09-.73-7.29,1.07-.42.34-.83.58-1.36.61-1.46.09-2.91.23-4.37.25-2.75.05-5.12.96-7.09,2.89-.55.54-1.12,1.07-1.67,1.61-1.51,1.46-3.22,2.55-5.28,3.1-1.2.32-2.34.86-3.54,1.19-1.19.33-2.42.6-3.64.78-1.09.16-3.62-.54-4.55-1.16,2.1-.62,3.76-1.79,5.12-3.48-.8-.1-1.55-.04-2.3-.03-2.25.02-4.23.8-5.86,2.32-.64.6-1.27.68-2.07.68-4.11,0-8.2.15-11.6,2.96-.13.11-.29.18-.44.27-1.89,1.1-4,1.53-6.08,2.08-2.07.54-4.09.3-6.11-.19-.13-.03-.24-.14-.43-.27,1.12-.47,2.1-.9,3.1-1.29,1.44-.57,2.59-1.49,3.57-2.67,2.09-2.52,3.95-5.19,5.52-8.07.19-.34.55-.66.91-.82,1.36-.63,2.75-1.21,4.14-1.79.43-.18.89-.29,1.35-.39,1.25-.27,2.47-.05,3.69.29.93.26,1.88.36,2.76-.14,1.11-.63,1.75-1.68,2.56-2.64-.26-.16-.36-.28-.47-.29-1.99-.25-3.95-.24-5.82.6-2.12.95-4.23,1.92-6.35,2.87-.5.22-1.01.42-1.51.62,1.03-2.48,1.91-4.95,3.87-6.78,1.23.32,2.4.71,3.6.27,1.14-.42,2.33-.73,3.31-1.48-.02-.1-.03-.21-.05-.31-1.5-.2-3-.4-4.53-.61.08-.12.13-.25.22-.32,3.09-2.28,6.45-3.39,10.3-2.38,1.53.4,3.07.34,4.6,0,.43-.09.99-.11,1.05-.92-.68-.32-1.4-.68-2.13-1-1.7-.75-3.36-.68-4.88.44-.42.31-.81.4-1.3.39-3.34-.05-6.22,1.13-8.73,3.29-.28.24-.57.49-.85.74-.13-.54-.04-.98.03-1.42.08-.48.14-.97.22-1.54-1.11.05-1.71.73-2.39,1.19-1.14.76-1.39,2.1-.75,3.3.18.34.39.66.55.93-.88,1.85-1.78,3.61-2.55,5.42-.38.9-.99,1.36-1.89,1.54-1.6.32-3.2.65-4.81.95-2.42.45-4.47,1.51-5.94,3.53-1.06,1.45-2.09,2.93-3.19,4.34-.47.6-1.03,1.15-1.64,1.6-.7.51-1.44.49-2.29.05-2.06-1.09-3.68-2.66-5.18-4.39-.35-.41-.66-.85-1.16-1.49,1.69.22,3.09.4,4.47.58.04-.12.07-.17.06-.19-.06-.11-.11-.23-.19-.33-1.23-1.47-2.88-1.98-4.71-1.96-.81,0-1.31-.32-1.87-.89-1.19-1.23-2.47-2.39-3.81-3.46-.61-.49-1.45-.89-2.21-.95-3.17-.25-5.43-2.19-7.8-3.97-.04-.03-.02-.16-.04-.27.98.06,1.95.22,2.91.16,1.41-.1,2.8-.34,4.2-.56.36-.06.79-.19.67-.9-1.52-.19-2.8-1.01-4-2.02-1.69-1.42-3.04-1.45-4.94-.26-.61.39-1.24.74-1.87,1.12-.31-.27-.55-.44-.75-.66-2.48-2.68-4.99-5.34-7.42-8.07-2.35-2.64-4.72-5.24-7.75-7.14-.2-.13-.38-.3-.68-.55,2.48-.25,4.87-.08,7.12-.92,1.68,2.35,4.74,2.56,6.45.43-.8-1.16-2.29-1.11-3.42-1.86.24-.16.38-.27.53-.34,3.4-1.59,6.91-2.88,10.65-3.41,3.09-.44,6.26-.3,9.23-1.27.37,1.04.63,2,1.04,2.89.71,1.56,2.28,2.14,3.92,1.47-.35-1.46-1.26-2.64-2.07-3.91.57.11,1.09.26,1.58.49,2.68,1.24,5.42,2.2,8.43,2.07.14,0,.29.08.43.12-.27,1.82.12,2.84,1.25,3.38,1.16.55,2.8.22,3.64-.79-1-.9-2-1.81-3.14-2.84.82-.16,1.45-.27,2.07-.41.58-.13,1.2-.16,1.81-.77q-7.49.78-8.64.18c.63-.66,1.27-1.32,1.91-1.99-.04-.1-.08-.19-.12-.29-.4-.03-.81-.11-1.2-.07-1.05.11-1.98.55-2.79,1.23-.29.25-.55.56-1.01.38-.8-.32-1.59-.66-2.39-.96-.82-.3-1.65-.56-2.6-.88,1.79-1.09,3.42-2.08,5.11-3.11,1.29,1.74,2.91,1.62,4.63.84.74-.34,1.46-.73,2.18-1.12.2-.11.35-.3.77-.66-1.96-.26-3.63-.49-5.3-.72.03-.04.08-.17.17-.22,2.23-1.21,4.37-2.64,6.72-3.55,2.24-.87,4.05-2.23,5.86-3.67.16-.13.23-.38.45-.78-3.21.16-6.03.59-7.82,3.41-.32.51-.62.98-1.22,1.26-2.66,1.23-5.15,2.77-7.47,4.57-.37.29-.77.54-1.18.78-.04.02-.19-.14-.29-.24.03-.07.06-.14.1-.2-.04.06-.08.12-.12.18,0,0,0,0,0,0h0s.02.03.02.03c-.08,0-.2-.02-.22.02-.76,1.26-2.04,1.77-3.31,2.32-2.4,1.05-4.92,1.51-7.52,1.6-.27,0-.55-.03-.94-.05,1-1.44,1.92-2.75,2.37-4.37-.28-.05-.41-.11-.52-.08-1.82.54-3.61,1.16-5.2,2.22-1.09.73-1.98,1.67-2.47,2.9-.19.46-.48.65-.9.8-1.21.44-2.44.86-3.61,1.4-1.99.91-3.95,1.91-5.92,2.87-.96.47-1.94.81-3.24.58,1.26-.88,2.24-1.77,2.82-3.01.85-1.83,1.71-3.66,2.56-5.49.7-1.52,1.32-3.09,2.09-4.57.77-1.48,1.88-2.72,3.12-3.88.53.48.94.86,1.36,1.22,2.23,1.91,4.7,1.87,7.27.88.82-.32.84-.75.14-1.28-.17-.13-.36-.24-.54-.35-1.5-.9-3.01-1.78-5.08-2.08,1.78-.82,3.51-.78,4.94-1.62-2.75.28-5.45.77-8.05,2.23.23-.78.43-1.3.55-1.84.11-.5.2-1.01.2-1.52,0-.47-.27-.81-.77-.9-.49-.09-.65.28-.84.63-.46.87-.93,1.74-1.43,2.59-.51.86-.59,1.69.08,2.5.1.13.17.28.27.44-.53.72-1.08,1.38-1.54,2.1-.47.74-.86,1.54-1.3,2.33-2.36-2.55-5.14-2.08-7.09-.79,1.91,1.24,3.46,3.22,6.31,2.73-1.13,2.66-2.02,5.23-3.52,7.49-.86,1.3-2.19,2.13-3.79,2.16-1.19.02-2.39-.21-3.57-.43-1.92-.35-3.78-.53-5.68.27-.91.38-2.02.42-3.03.39-2.61-.07-5.09-.76-7.48-1.8-.32-.14-.67-.21-1.01-.31-.05.09-.1.18-.14.27.41.34.76.79,1.23,1,3.11,1.38,6.39,1.91,9.8,1.69.67,1.62,1.01,3.38,2.58,4.41.99.65,3.88,1.51,4.87,1.38-.18-1-.79-1.8-1.3-2.62-.49-.8-1.02-1.62-1.7-2.25-.68-.63-1.57-1.04-2.42-1.57.79-.46,1.55-.48,2.3-.22.77.27,1.54.57,2.25.95,3.74,1.99,6.76,4.84,9.49,8.03.25.29.46.6.61.8-.37.95-.74,1.76-1.02,2.61-.23.73.04,1.35.63,1.83.57.48,1.21.77,2.06.75.09-1.16-.47-2.26-.17-3.48,3.95,3.93,7.43,8.17,11.91,11.08-.15,1.48-.32,2.76-.38,4.04-.08,1.81,1.11,2.87,3.14,2.74,0-1.54,0-3.1,0-4.78.31.28.6.5.84.77,2.24,2.58,3.55,7.36,1.48,11.37-.87,1.69-1.69,3.38-2.11,5.25-.28,1.25-.35,1.29-1.67,1.23-.93-.04-1.81.01-2.55.65-.7.6-1.43,2.29-1.49,3.57,1.68-.54,3.3-1.06,4.84-1.56.14.85.16,1.86.47,2.77.6,1.74,1.68,3.21,3.18,4.29,1.68,1.22,3.14,2.67,4.55,4.18.78.83.99,1.78.66,2.85-.15.49-.37.97-.5,1.46-.65,2.41.79,4.27,3.59,4.92.06.01.14-.08.37-.21-.29-1.98-.58-4.03-.89-6.19,1.05.6,1.79,1.41,2.36,2.37,1.09,1.82,2.01,3.7,2.21,5.86.19,2.07,1.61,3.17,3.42,4.31.07-1.69-.04-3.1-.88-4.36-.32-.49-.76-1-1.27-1.24-.9-.43-1.31-1.1-1.62-1.99-.69-1.97-1.61-3.84-3.39-5.07-1.85-1.28-3.41-2.87-4.92-4.51-.18-.19-.3-.44-.45-.66.05-.08.11-.15.16-.23,1.96.76,3.93,1.49,5.87,2.29,2.89,1.19,5.03,3.24,6.53,5.98.31.57.66,1.13.99,1.69.06-.03.11-.05.17-.08-.19-.71-.37-1.43-.59-2.26,1.73.71,3.42.74,5.1.82.03-.2.08-.31.05-.37-1.63-2.64-3.85-4.24-7.1-4.03-.35.02-.8-.03-1.06-.23-2.22-1.79-4.79-2.85-7.46-3.72-.22-.07-.43-.17-.64-.26,1.05-.46,2.1-.64,3.11-.96,1.19-.37,2.34-.84,3.5-1.29.32-.12.63-.35.31-.91-1.96.39-3.69-.34-5.4-1.35-1.45-.86-2.59-.49-3.55.91-.27.39-.44.84-.73,1.21-.36.45-.79.85-1.29,1.37-.89-.9-1.71-1.6-2.37-2.43-1.15-1.45-1.86-3.08-1.52-5.02.5-2.81,1.18-5.53,2.46-8.11,2.12-4.28,1.68-8.4-1.01-12.31-.15-.21-.25-.46-.38-.73,1.73-.09,3,.64,4.21,1.61,1.8,1.44,3.29,3.15,4.64,4.99,1.97,2.69,4.18,5.13,7.19,6.72.06.03.09.13.12.17-.24.66-.55,1.29-.68,1.94-.24,1.22.03,2.36,1.05,3.13,1.38,1.03,2.94.82,4.74.6-.91-1.55-1.7-2.88-2.49-4.22.07-.07.13-.14.2-.21.31.09.63.16.93.29,2.34,1.04,4.83,1.49,7.33,1.89,2.63.42,5.22.97,7.68,2.09,1.92.87,3.82,1.76,5.54,3,.42.3.85.58.75,1.23-.24,1.57-.36,3.16-.71,4.7-.28,1.22-.24,2.39.09,3.56.1.35.34.7.62.94.6.51,1.09.4,1.48-.27.56-.97.83-2.03.3-3.08-.4-.79-.95-1.51-1.55-2.44.1-.79.22-1.81.38-3.1.35.48.54.71.68.96.65,1.11,1.3,2.23,1.93,3.36.55,1,1.22,1.93,2.25,2.43,1.23.6,2.53,1.06,3.82,1.53.28.1.62.04,1.07.07-.11-.32-.12-.51-.21-.62-.92-1.02-1.83-2.05-2.8-3.03-.9-.9-1.99-1.5-3.25-1.76-.71-.14-1.31-.36-1.62-1.07-.27-.63-.92-1.08-.95-1.79,1.6.23,3.12.53,4.65.66,4.4.38,8.38,1.86,11.91,4.46,3.4,2.51,6.31,5.57,9.28,8.56.7.7.75,1.51.56,2.38-.1.46-.28.9-.44,1.35-.49,1.37-.52,2.79-.35,4.21.14,1.2.67,2.18,1.97,2.76.29-1.32.66-2.51.79-3.72.13-1.24.03-2.51.03-3.93.33.44.58.77.83,1.11,1.28,1.76,2.01,3.79,2.75,5.81.57,1.56.65,3.18.64,4.82,0,1.33,0,2.66.12,3.98.15,1.88.45,3.76.6,5.64.25,3.12,1.71,5.62,3.81,7.83,1.96,2.07,4.33,3.51,6.98,4.49.65.24,1.14.53,1.27,1.28.15.82.72,1.3,1.41,1.75.63.41,1.14,1.01,1.7,1.52.13.12.27.24.48.43,0-1.29-.02-1.35-1.61-4,.51.06.92.07,1.31.17,3,.78,6,1.53,8.97,2.38,1.71.49,3.14,1.56,3.93,3.14.87,1.76,1.5,3.65,2.15,5.51.12.34-.13.81-.22,1.22-.15.71-.37,1.41-.44,2.12-.05.57.14,1.11.79,1.28.9-1.45,2.18-2.82.75-4.72Zm9.07-8.07c.23.33.39.53.51.75,1.07,2.02.64,2.8-1.69,3.11,0-1.75.13-2.19,1.18-3.86Zm-12.98-.24c1.2-.52,2.31-.99,3.53-1.52.2,1.45-.14,1.94-1.35,2.01-.71.04-1.44.07-2.18-.49Zm-21.05-11.05c-.64-.2-1.2-.51-1.24-1.24-.05-.82.65-1.07,1.21-1.48.41,1.12.41,1.43.03,2.72Zm9.55-.19c1.61-.3,3.42,1.16,3.94,3.23-1.72-.68-3.25-1.4-3.94-3.23Zm11.34-4.74c-1.78-.21-3.26-.5-4.05-2.08-.53-1.06-.99-2.15-1.48-3.22.09-.06.19-.12.28-.18,2.3,1.17,4.09,2.86,5.25,5.49Zm-6.92-10.56c-1.53,1.65-2.92,2.98-4.9,3.7.66-2.03,2.5-3.46,4.9-3.7Zm-7-6.83c-1.3-.69-1.72-1.74-1.25-3.15.83.91,1.15,1.96,1.25,3.15Zm26.1,13.4c-.05.04-.1.09-.15.13-.19-.21-.39-.43-.58-.64.07-.06.14-.12.2-.18.18.23.35.46.53.68Zm5.35-.28c-1.42.51-3.19-.23-4.19-1.73,1.32-.12,2.75.47,4.19,1.73Zm10.82.47c-1.64.42-2.9-.39-3.38-2.79,1.42.59,2.49,1.49,3.38,2.79Zm10.47,4.21c-.3.05-.57.1-1,.18-.09-.85-.18-1.62-.26-2.39,1.02.45,1.38,1.19,1.26,2.22Zm4.1-2.33c-.99.43-1.83.22-2.45-.74.82.25,1.64.49,2.45.74Zm4.03-3.51c.98-.72,1.42-.83,2.85-.69-1.22.94-1.76,1.05-2.85.69Zm-4.95-2.79c1.51-.96,2.96-.99,4.46-.56-1.38.46-2.68,1.42-4.46.56Zm7.03-7.44c-1.26-.3-1.37-1.28-1.66-2.13,1.03.28,1.37,1.09,1.66,2.13Zm5.81-3.77c-.83,1.1-2.4,1.62-3.94,1.27,1.28-.77,2.53-1.14,3.94-1.27Zm-.4,2.86c.76-.42,1.39-.41,2.18-.11-.74.38-1.37.47-2.18.11Zm28.7-15.94c.47-.29.93-.58,1.4-.87l.15.23c-.45.32-.89.64-1.34.96-.07-.11-.14-.21-.22-.32Zm-5.27,6.26c-1.32,1.42-2.31,1.84-4.29,1.88.73-.92,2.36-1.67,4.29-1.88Zm-10.27.22c-.37,1.31-1.47,2.17-3.26,2.46.87-1.31,1.75-1.95,3.26-2.46Zm-.32,3.66c1.48.45,2.68.81,3.94,1.19-1.12.8-2.56.41-3.94-1.19Zm-7.42-10.11c-.77,1.31-1.25,2.53-2.62,3.07-.1-1.69.35-2.26,2.62-3.07Zm-.71,5.2c-1.08,1.07-2.18.74-3.26.44.97-.79,2.03-.64,3.26-.44Zm-10.8-4.73c.21,1.55-.52,2.37-1.71,3.13-.04-1.44.63-2.29,1.71-3.13Zm-9.37,6.41c.24,1.86.13,3.54-1.25,5.08-.41-1.61.07-3.54,1.25-5.08Zm4.26,3.14c-.97,1.82-2.71,2.78-4.57,2.6.57-1.1,2.25-2.07,4.57-2.6Zm-5.51,10.53c-1,.87-2.45,1.09-4.27.6,1.53-.58,2.84-.75,4.27-.6Zm-1.34,2.67c-2.09.59-3.72.24-5.16-1.07,1.76-.26,3.37.19,5.16,1.07Zm-8.27-4.39c-.21,1.88-1.38,2.98-3.33,3.13.46-1.47,1.65-2.59,3.33-3.13Zm-11.86,1.15c-.66.77-1.27,1.24-2.34,1.34.63-.87,1.3-1.23,2.34-1.34Zm-18.48-7.83c-2.58.8-5.25.18-7.09-1.6,2.53-.18,4.82.23,7.09,1.6Zm-5.69,2.18c-.26-.06-.53-.09-.79-.17-3.09-1.05-5.85-2.58-7.98-5.15-.81-.98-1.86-1.76-2.81-2.63-.21-.19-.41-.4-.61-.59,4.97,1.55,8.35,5.32,12.18,8.55Zm-19.47-12.31c.49-.77,1.19-1.06,1.91-1.01,1.56.1,3.11.35,4.8.55-1.35.9-4.79,1.12-6.71.47Zm10.79-3.7c-1.79-.02-2.28-.58-2.18-2.66,1.18.65,1.92,1.43,2.18,2.66Zm2.16-.79c-.97-.07-1.67-.47-2.3-1.18,1.02.14,1.32.29,2.3,1.18Zm14.85-4.22c-.69.68-1.48,1.05-2.62.69.83-.73,1.68-.83,2.62-.69Zm-5.24,4.5c-1.94-.04-2.49-.43-3.08-2.06,1.47-.06,2.17.94,3.08,2.06Zm15.42-5.2c-.36-.81-.72-1.63-1.08-2.47.92.48,1.25,1.15,1.08,2.47Zm11.19,11.02c-1.28-.98-1.46-1.99-.65-3.87.66,1.35,1.14,2.5.65,3.87Zm2.05-7.17c-1.39,1.1-3.49.58-5.18-1.44,2.03.02,3.67.45,5.18,1.44Zm-9.43-13.86c-.5-.23-1.01-.44-1.54-.67,1.18-.77,2.42-.28,3.14,1.44-.53-.26-1.06-.53-1.59-.77Zm3.49,3.68c1.27-.41,2.01-.08,2.96,1.48-1.02-.85-2.36-.27-2.96-1.48Zm-13.17-1.38c-.31,1.71-1.35,2.59-3.58,2.94.97-1.45,1.46-3.17,3.58-2.94Zm-24.55.29c-.54,1.5-1.33,2.13-3.69,2.96.72-1.8,2.1-2.4,3.69-2.96Zm-3.22,5.49c-.92.81-1.97,1.22-3.43,1.26,1.1-1.07,2.22-1.3,3.43-1.26Zm-12.85,4.71c1.65-.06,2.84.63,3.96,1.81-1.87.72-3,.19-3.96-1.81Zm-8.78-8.66c-1.9-.02-2.85-1.38-2.12-3.09,1.15.75,1.79,1.78,2.12,3.09Zm33.21,3.04c-.22-.92.01-1.68.6-2.38.64-.75,1.26-1.51,1.89-2.27,1.08,1.73.13,3.47-2.49,4.65Zm-2.1-18.59c-.77,1.45-2.37,1.83-4.84,1.1,1.65-.96,3.15-1.35,4.84-1.1Zm-13.8,2.91c1.53.24,2.53,1,3.39,2.07-1.7.62-2.97-.11-3.39-2.07Zm-20,4.48c-1.63,1.5-3.55,2.19-6.02,2.17,1.86-1.66,3.8-2.32,6.02-2.17Zm-16.1,6.84c-.73-.33-1.46-.7-2.18-1.05,4.34-1.2,7.99.54,11.66,2.77-1.4.57-2.74.45-4.08.27-1.94-.26-3.65-1.19-5.4-1.99Zm9.46-17.11c-.98,1.83-1.78,2.25-3.54,1.95-.84-.14-1.67-.31-2.74-.51,2.08-1.34,4.09-1.62,6.27-1.44Zm3.05-9.03c1.58-1.1,3.77-.95,5.44.43-1.94.57-3.71.71-5.44-.43Zm-6.83,4.61c-1.11,1.07-2.62,1.3-4.33.63,1.42-1.09,2.83-.87,4.33-.63Zm-5.42-2.28c.06,1.38-.35,2.65-1.13,3.48-1.15-1.61-.76-2.82,1.13-3.48Zm-26.96-20.88c.85-.74,1.76-1.06,2.81-1.21-.58,1.33-1.45,1.73-2.81,1.21Zm12.99-14.35c-.77,1.35-3.47,2.83-6.09,3.28,1.56-2.31,3.69-3.01,6.09-3.28Zm-13.42,8.92c1.78-.81,3.39-.74,5.12-.24-1.93,1.58-3.61,1.7-5.12.24Zm6.08,7.36c1.44.52,2.22,1.66,3.35,2.58-1.02.61-1.92.65-2.76.09-.9-.6-1.04-1.5-.59-2.67Zm-9.97.84c-1.2.2-1.97-.08-2.43-1.06-.37-.8-.58-1.68-.95-2.79,1.82.81,2.78,1.97,3.38,3.86Zm-10.42-7.28c-.68,2-1.68,3.66-4.07,3.88-.66.06-1.31.23-2.21.4,1.49-2.6,3.79-3.54,6.28-4.27Zm-16.19,9.36c1.67-.51,3.11.07,4.64.77-.65.93-1.55,1.06-2.47.91-.96-.16-1.95-.39-2.17-1.68Zm14.75-15.25c-2.54,1.45-5.55.75-7.6-1.78,1.9-1.27,5.51-.07,7.6,1.78Zm-10.15-2.92c.47-.85,1-1.65,1.65-2.71.04,1.76-.85,2.97-1.26,4.45-.76-.61-.69-1.2-.39-1.75Zm-8.76,6.02c2.06-1.01,4.22-.28,5.03,1.71-1.39.98-3.38.31-5.03-1.71Zm-5.91,18.56c-3.54-.34-4.52-1.28-5.27-5.04,1.99-.09,4.05,1.86,5.27,5.04Zm11.51,8.36c-1.84-.23-2.08-1.4-.51-3.25.17,1.08.34,2.15.51,3.25Zm7.71,3.48c.79-.5,1.48-1,2.22-1.39,1.2-.63,2.36-.58,3.46.34.91.76,1.9,1.43,3,2.24-.63.11-1.15.22-1.68.28-1.71.18-3.41.11-5.11-.21-.77-.15-1.35-.48-1.88-1.27Zm25.46,53.41c-1.53-.91-1.96-1.68-2.14-3.83,1.41.56,2.28,2.12,2.14,3.83Zm-7.17-5.67c-2.18-.39-3.21-2.21-2.45-4.18.29-.75.55-1.5.88-2.42,1.15,2.11,1.32,4.36,1.57,6.61Zm12.15-3.54c-2.42.25-4.2-.75-5.69-2.77,2.72-.13,4.66.84,5.69,2.77Zm-16.16-11.08c.64-.89,1.25-1.07,2.22-.63,1.19.54,2.34,1.14,3.69,1.8-2.52.73-4.89,1.44-7.56,1.43.61-.97,1.09-1.81,1.65-2.6Zm-11.15-4.92c.57-1.84,1.43-2.27,3.41-1.79-.76,1.35-1.47,1.73-3.41,1.79Zm3.45-17.24c-1.64-.34-1.99-.81-1.79-2.45.11-.96.25-1.92.38-2.94,1.78.94,1.85,3.13,1.42,5.38Zm12.02,1.39c1.16-.3,2.04-.07,2.75.74-1.01.07-1.95,0-2.75-.74Zm10.43,13.14c-1.46-.1-2.81.22-3.63-1.01-.81-1.21-.48-2.44.33-3.78,1.34,1.42,2.23,3.02,3.29,4.79Zm3.68-11.27c1-.79,2.17-.81,4.19-.02-1.53,1-2.86.87-4.19.02Zm-6.1,5.88c1.96-.87,2.92-2.59,4.09-4.1.88-1.13.88-1.18,2.24-.7,1.72.61,3.2.2,4.59-.84.15-.11.25-.31.52-.64-1.71-.31-3.23-.58-4.8-.86,1-1.2,2.37-1.87,3.87-2.25,1.16-.29,2.36-.46,3.54-.69.83-.16,1.67-.33,2.68-.53-.26.47-.4.81-.62,1.12-1.35,1.93-2.79,3.81-4.05,5.8-1.59,2.51-4.01,3.65-6.7,4.44-.33.1-.68.12-1,.24-1.59.59-2.91-.01-4.36-.98Zm24.19,18.65c-.48.1-.73-.19-.83-.59-.3-1.15-.41-2.31.12-3.47,1.49,1.43,1.68,2.58.71,4.06Zm7.9-.85c-2.13-.79-4.12-1.53-5.12-3.78,1.82.1,4.21,1.86,5.12,3.78Zm27.29,4.13c-.99-.54-1.83-1.22-2.13-2.75,1.24.74,1.76,1.68,2.13,2.75Zm-7.45,11.59c-1.31-1.27-1.24-4.39.14-6.91,1.09,2.37.36,4.61-.14,6.91Zm3.69-5.2c1.35-.59,3.61.07,4.83,1.49-1.88-.02-3.48-.25-4.83-1.49Zm16.99,35.21c-1.05-.22-1.5-.71-1.72-1.66.87.29,1.21.9,1.72,1.66Zm16.63,10.22c.34,1.2.02,2.03-.78,2.88-.23-1.21.35-1.93.78-2.88Z"/>
        <path class="cls-9" d="m73.05,66.79c2,.32,3.97-.2,6.11-.44-.88-1.35-1.95-2.08-3.39-2.25-1.45-.17-2.81.16-4.15.67-.33.13-.67.23-1.07.36-.06-2.37-1.06-4.1-2.87-5.59-.76,2.61-1.01,4.94,1.14,6.85-1.16.69-2.22,1.33-3.29,1.97-.99.59-1.99,1.18-2.99,1.76,1.62-.68,3.26-1.31,4.85-2.06,1.8-.86,3.56-1.61,5.65-1.28Zm4.92-.96c-2.32.48-4.46.6-6.64.02,1.48-1.43,4.99-1.49,6.64-.02Zm-9.84-4.77c1.46,1.12,2.04,2.78,1.55,4.68-1.73-.8-2.26-2.48-1.55-4.68Z"/>
      </g>
    </g>
  </g>
</svg>