<?xml version="1.0" encoding="UTF-8"?>
<svg id="Layer_2" data-name="Layer 2" xmlns="http://www.w3.org/2000/svg" xmlns:xlink="http://www.w3.org/1999/xlink" viewBox="0 0 118.9 169.05">
  <defs>
    <style>
      .cls-1 {
        fill: url(#Degradado_sin_nombre_27);
      }

      .cls-2 {
        fill: url(#Degradado_sin_nombre_27-2);
      }
    </style>
    <linearGradient id="Degradado_sin_nombre_27" data-name="Degradado sin nombre 27" x1="2.03" y1="-206.02" x2="91.65" y2="-206.02" gradientTransform="translate(246.28 -31.25) rotate(-134.1)" gradientUnits="userSpaceOnUse">
      <stop offset="0" stop-color="#bc783b"/>
      <stop offset=".1" stop-color="#c17d3f"/>
      <stop offset=".24" stop-color="#d08e4a"/>
      <stop offset=".4" stop-color="#eaa95e"/>
      <stop offset=".5" stop-color="#ffc06e"/>
      <stop offset=".59" stop-color="#f9bb6b"/>
      <stop offset=".7" stop-color="#eaad63"/>
      <stop offset=".82" stop-color="#d19656"/>
      <stop offset=".95" stop-color="#ae7643"/>
      <stop offset="1" stop-color="#a0693c"/>
    </linearGradient>
    <linearGradient id="Degradado_sin_nombre_27-2" data-name="Degradado sin nombre 27" x1="31.07" y1="-148.59" x2="43.96" y2="-148.59" xlink:href="#Degradado_sin_nombre_27"/>
  </defs>
  <g id="OBJECTS">
    <g>
      <path class="cls-1" d="m3.44,99.93c.03.75.04,1.4.08,2.04.07,1.12.22,2.25.92,3.16.4.53.55,1.05.61,1.7.15,1.85.81,2.29,2.59,1.77.54-.16,1.15-.23,1.5-.84-.76-.72-1.5-1.47-2.51-1.7-1.18-.27-1.84-1.04-2.14-2.08-.4-1.38-.38-2.83-.37-4.31.94-.13,1.83-.18,2.68-.39.84-.2,1.65-.55,2.5-.84-.09.49-.21.93-.24,1.37-.06.92.52,1.56,1.43,1.67.8.09,1.05-.25.86-1.04-.21-.89-.42-1.79-.53-2.69-.05-.39.1-.83.26-1.2,1.26-2.77,2.66-5.49,3.79-8.32,1.1-2.76,2.87-4.9,5.25-6.57,1.4-.98,2.98-1.58,4.69-1.56,2.78.03,5.55.29,8.3.82.92.18,1.88.18,2.82.26.16.01.32.03.48.04.02.07.04.14.06.22-1.01.51-2,1.12-3.05,1.52-1.68.65-3.4,1.24-5.26.92-1.42-.24-2.82-.65-4.2.03-.74-1.32-1.11-1.63-1.81-1.53-.65.09-1.24.73-1.43,1.63.71.23,1.42.47,2.11.69-.46.77-.94,1.44-1.28,2.17-.34.74-.56,1.54-.78,2.32-.15.54-.42,1-.93,1.19-1.21.44-2,1.32-2.72,2.31-.3.41-.65.77-1.1,1.29.41.05.62.11.83.1,2.29-.16,3.75-1.51,4.13-3.77.29-1.69.7-3.33,1.87-4.67,1-1.14,2.14-1.95,3.77-1.46.16.05.32.05.48.08,1.74.34,3.47.29,5.13-.34,1.19-.45,2.35-1,3.52-1.5.22-.09.43-.18.65-.27l.1.17c-.28.2-.55.43-.84.6-.6.34-1.22.64-1.82.98-3.71,2.08-5.78,5.2-6.01,9.49-.04.81-.22,1.61-.34,2.4-1.03.28-1.98.51-2.92.79-1.85.55-2.51,2.04-2.89,3.74,0,.04.06.1.16.25,1.65-.2,3.07-1,4.42-2.04-.05.35-.16.64-.29.92-.53,1.13-1.08,2.25-1.6,3.38-.55,1.17-.88,2.4-.91,3.7,0,.18.1.36.15.55.34-.6.49-1.2.65-1.79.2-.76.34-1.54.65-2.25.75-1.71,1.6-3.37,2.37-5.07.3-.65.55-1.33.72-2.03.22-.94.33-1.9.53-3.08.88,1.64,1.61,3.15,2.84,4.41.53-1.61.31-3.1-.64-4.3-.45-.56-.98-1.06-1.5-1.54-.39-.36-.51-.74-.28-1.22.2-.41.37-.84.59-1.24,1.17-2.05,2.79-3.63,4.91-4.67,1.49-.73,2.79-1.7,3.97-2.86.23-.23.46-.48.74-.65.28-.17.61-.26.92-.39-.67,1.43-1.16,2.78-1.06,4.29.15.01.22.04.27.02.15-.07.29-.14.42-.24,1.49-1.03,2.14-2.52,2.32-4.26.04-.4.14-.65.52-.85,3.35-1.77,6.33-4.08,9.28-6.43.18-.15.4-.26.55-.35-1.39,3.19-2.77,6.36-4.18,9.6-.76-.06-1.51.07-2.08.62-.51.5-1.33.82-1.24,1.91.9-.28,1.68-.53,2.59-.82-.41.82-.67,1.5-1.06,2.09-1.13,1.69-2.76,2.86-4.34,4.09-.82.64-1.59.82-2.62.45-1.28-.46-2.85.41-3.43,1.81,1.08-.08,2.11-.15,3.24-.23-1.5,1.67-2.57,3.53-3.6,5.43-.27.5-.73.92-1.14,1.34-.78.79-1.62,1.53-2.39,2.33-1.29,1.34-2.26,2.88-2.95,4.6-.19.48-.48.93-.75,1.37-.38.62-.92.99-1.66,1.08-.75.09-1.49.25-2.22.41-.66.14-1.23.47-1.65,1-.14.18-.2.43-.35.78,1.14-.29,2.05-.6,2.79-1.3.5-.48.51-.46,1.45-.28-.32.27-.59.51-.87.72-.55.41-1.14.77-1.66,1.23-.41.36-.82.78-1.05,1.26-.32.67-.49,1.42-.71,2.14-.05.15,0,.34.02.55,1.5-.9,2.58-2.32,3.02-3.92.08-.28.15-.61.34-.79.81-.73,1.66-1.41,2.68-2.26-.23.98-.33,1.8-.63,2.55-.95,2.41-1.98,4.78-2.94,7.18-.41,1.03-.94,1.72-2.17,1.9-1.36.21-2.15,1.59-1.97,3.12.73-.41,1.41-.79,2.1-1.18-.03.4-.2.68-.31.98-.55,1.43-1.16,2.85-1.61,4.32-.24.78-.64,1.19-1.39,1.3-.45.07-.91.06-1.36.06-.32,0-.65-.09-.97-.08-.6.01-.79.23-.82.86-.02.5.21.75.78.79.8.05,1.48-.2,1.99-.85.33-.42.34-.41.89-.34-.81,1.19-1.95,2.02-3.08,2.86-.06.04-.07.14-.11.24.24-.06.45-.12.68-.18-.07.73-.14,1.39-.23,2.25,1.25-.89,1.83-1.93,1.93-3.18.06-.76.51-1.08,1.12-1.61-.14,2.02-.45,3.81-.76,5.62-.31,1.85-1.49,3.35-2.19,5.25.74-.27.89-.77,1.15-1.16.26-.39.52-.79.84-1.28.17.45.29.78.42,1.11.12.32.24.63.39,1.03.71-1.53.73-2.59.17-3.9-.11-.26-.21-.57-.17-.83.3-2.04.62-4.08.96-6.11.04-.23.16-.44.32-.86.24,1.19.43,2.14.63,3.1.14.68.15,1.34,0,2.04-.28,1.4-.01,2.77.29,4.3.26-.28.46-.42.55-.6.66-1.47.85-2.95.06-4.44-.14-.26-.29-.52-.36-.79-.26-1.08-.5-2.17-.71-3.27-.31-1.59-.17-3.12.61-4.58.64-1.18,1.25-2.38,1.82-3.59.87-1.84,1.7-3.69,2.55-5.54.1-.21.23-.39.35-.59-.08.96-.29,1.84-.53,2.71-.54,1.94-.86,3.9-.69,5.92.03.39.06.79,0,1.17-.04.27-.16.59-.36.75-1.41,1.15-1.75,2.7-1.76,4.4,0,.2.08.41.16.81.47-.64.82-1.11,1.28-1.74.04,1.31.2,2.43.86,3.48.21-1.04.42-2.07.63-3.11.81,1.49,1.56,2.98,2.42,4.4.97,1.6.97,3.2.31,4.87-2.15.43-2.47.66-2.47,1.81.6-.04,1.19-.08,1.86-.12-.46.91-.75,1.82-1.3,2.52-1.03,1.33-1.05,2.74-.64,4.5.27-.43.47-.67.58-.95.29-.74.44-1.51.3-2.31-.07-.44-.01-.81.48-1.13.15,1.22.58,2.26,1.24,3.46.38-1.99.31-3.7-.46-5.19.52-1.58.99-3.03,1.47-4.47.02.03.1.09.12.17.56,1.68,1.15,3.35,1.65,5.04.52,1.76.56,3.55-.03,5.32-.3.9-.62,1.8-.93,2.69-.38,1.08-.83,2.14-1.13,3.25-.15.54-.4.91-.77,1.3-.46.49-.92,1.04-1.19,1.64-.31.67-.34,1.42.34,2.2.42-.83.77-1.54,1.13-2.25.06.02.13.04.19.06.04,1.19.61,2.31.32,3.54-.07.31-.05.65-.04.98.05,1.29.7,2.33,1.41,3.53.55-1.2.21-2.25.07-3.48,1.26,1.42,2.24,2.73,2.72,4.37.4,1.38.15,2.69-.44,3.97.06.03.13.06.19.09.26-.3.52-.6.81-.94.47.67.68,1.52,1.52,2.05.1-1.15-.25-2.02-.82-2.85-.21-.31-.41-.69-.43-1.05-.08-1.81-.8-3.35-1.89-4.76-.7-.91-1.4-1.82-1.98-2.8-.35-.6-.59-1.33-.67-2.02-.1-.94,0-1.89.04-2.84,0-.19.11-.38.17-.57.34,1.43,1.5,2.24,2.16,3.39.12-.1.2-.13.21-.18.03-.16.05-.32.04-.48-.09-1.28-.49-2.45-1.35-3.41-.56-.63-.63-1.2-.23-1.94.31-.57.56-1.19.73-1.82.35-1.26.63-2.53.93-3.8.05-.2.05-.41.1-.86.53.7.92,1.21,1.28,1.68-1.01,1.56-.96,2.95.15,3.8.23-.71.45-1.39.7-2.19.86,1.57.74,3.19.96,4.74.07,0,.13-.01.2-.02-.02-.96-.04-1.91-.06-3.03.85.77,1.52,1.6,2.74,1.79-.25-.61-.5-1.1-.64-1.61-.31-1.11-.99-1.75-2.15-1.83-.41-.03-.6-.26-.81-.59-.65-.98-1.37-1.91-2.05-2.86-.18-.26-.42-.53-.48-.82-.86-3.98-2.4-7.69-4.52-11.15-.92-1.5-1.4-3.17-1.97-4.81-.03-.08,0-.18.02-.34.15.09.28.13.36.22,1.17,1.27,2.35,2.55,3.51,3.84.47.53.67,1.13.64,1.88-.07,1.66.52,3.08,1.81,4.17.15.13.35.21.68.39-.11-.93-.2-1.68-.28-2.43.34.18.57.4.74.66.62.96,1.24,1.93,1.83,2.91.88,1.47,1.65,2.97,1.82,4.75.08-.53.15-1.06.23-1.6.76.24,1.49.47,2.25.71-.23-1.52-1.28-2.7-2.6-2.88-.49-.07-.77-.26-.98-.67-.14-.26-.3-.51-.45-.76-.82-1.3-1.63-2.6-2.45-3.91-.07-.12-.13-.25-.24-.47,1.26.27,2.42.51,3.85.41-.98-.67-1.74-1.23-2.54-1.73-.73-.46-1.54-.75-2.42-.7-.38.02-.59-.15-.82-.41-1.12-1.28-2.25-2.56-3.39-3.82-1.04-1.14-1.79-2.42-1.99-3.98-.03-.2,0-.4.01-.7,1.15,1.3,2.25,2.06,3.14,2.22-.61-1.82-1.18-3.64-2.97-4.61.49-2.29.97-4.5,1.47-6.82.48.89.81,1.71,1.58,2.19.09-.1.15-.14.17-.19.03-.09.04-.19.03-.29-.07-1-.29-1.96-1-2.71-.38-.4-.43-.85-.39-1.36.26-3.67,1.85-6.72,4.46-9.24,1.84-1.77,3.74-3.47,5.63-5.2.32-.29.68-.55,1.02-.82.05.05.09.1.14.15-.9.94-1.88,1.8-2.32,3.08-.44,1.29-.35,2.59-.41,4.11.31-.25.44-.34.54-.45,1.55-1.66,2.48-3.62,2.63-5.89.06-.91.37-1.64,1.05-2.23.22-.19.42-.41.63-.62,1.67-1.72,3.24-3.52,4.27-5.72.36-.78.77-1.54,1.15-2.31.18.17.22.29.21.4-.09.61-.23,1.22-.28,1.84-.03.42-.01.87.12,1.26.09.26.42.43.65.63.18-.21.43-.38.52-.62.22-.58.3-1.22.57-1.77.63-1.34.74-2.63-.08-3.93-.25-.39-.21-.77-.03-1.21.54-1.3,1.01-2.63,1.57-3.92,1.17-2.75,2.6-5.36,4.17-7.9.09-.15.21-.27.31-.41.07.02.14.04.21.07-.57,2.6-.73,5.22-.56,7.84-2.09.72-3,2.12-2.03,4.02.72-.67,1.42-1.31,2.2-2.04.09.71.2,1.32.25,1.93.17,1.99.44,3.99-.34,5.91-.5,1.23-1.01,2.47-1.94,3.46-1.1-.73-2.22-.64-2.84.23-.35.49-.68,1.02-.59,1.73.35-.02.62-.03.91-.05-.23.96-1.08,1.57-1.05,2.63.59-.45,1.19-.9,1.82-1.38-.15,1.61-.29,3.1-.43,4.6-1.72.66-2.42,1.59-2.39,3.24,1.05-.39,1.93-.99,2.75-1.86.18,1.09-.06,1.98-.37,2.83-.48,1.32-1.03,2.62-1.54,3.93-.08.21-.26.45.11.74.45-.9.88-1.75,1.34-2.68.37.74.37,1.53,1.15,2.03.48-1.35.61-2.61-.15-3.81-.21-.33-.26-.6-.23-.98.07-1.07.13-2.16.04-3.22-.14-1.71-.08-3.4.34-5.07.16-.64.38-1.29.97-1.81.05.19.11.28.1.37-.16,2.01.1,3.99.47,5.96.39,2.06.73,4.13,1.14,6.19.43,2.2.31,4.36-.22,6.53-.11.44-.31.73-.72.97-.85.48-1.75.72-2.7.87-.39.06-.78.1-1.16.2-.16.04-.43.24-.41.33.04.19.19.43.35.5.87.36,1.76.51,2.66.07.25-.12.52-.21.84-.33-.6,1.97-5.12,4.7-8.32,6.41-2.42-1.1-3.53-.99-4.63.52.93.48,1.91.72,2.97.61-.78,1-1.54,1.9-2.22,2.85-.83,1.14-1.24,2.52-1,3.54.5-1.72,1.27-3.1,2.3-4.33,1.04-1.24,2.17-2.37,3.68-3.07-.55,1.26-.55,2.53-.37,4.01,1.63-1.43,2.71-2.95,2.77-5.02.01-.39,0-.69.38-.92,1.65-.99,3.23-2.07,4.7-3.72-.04,1.77-.15,3.32.79,4.49-.36.71-.61,1.34-.97,1.91-.37.58-.83,1.1-1.29,1.68,1.74.02,2.97-1.07,3.34-2.89.74-.14,1.41-.09,1.94.57.44.54,1.03.63,1.69.45,1.32-.35,2.64-1.86,2.81-3.24.01-.09-.05-.2-.14-.51-.17.44-.25.69-.36.91-.53,1.04-1.14,2-2.36,2.34-.73.2-.92.1-1.38-.67,1.89-1.38,2.27-3.07.97-4.37-.31.66-.59,1.34-.94,1.97-.36.65-.8,1.26-1.19,1.87-1.24.02-1.8-.35-2.16-1.44-.08-.25-.14-.51-.19-.76-.23-1.18-.12-2.36.15-3.51.26-1.08.62-2.13.92-3.2.12-.41.19-.84.3-1.34,1.48,1.77,1.51,1.8,2.4,2.03.5-1.38.26-2.43-.77-3.36-.27-.24-.52-.51-.82-.7-.71-.45-.93-1.13-1.05-1.9-.24-1.52-.51-3.04-.79-4.55-.47-2.61-1.05-5.2-.88-7.89.05-.8.22-1.53.71-2.2.35-.47.58-1.02.85-1.55.18-.36.33-.73.52-1.18.5.76.48,1.72,1.5,2.1.03-.94.05-1.79.07-2.63.41.46.67.95.86,1.46.22.58.33,1.21.57,1.78.43,1,1.04,1.84,2.37,2.2-.12-.68-.2-1.18-.31-1.68-.27-1.29-.92-2.29-2.12-2.92-.22-.11-.4-.32-.56-.52-.49-.65-.98-1.31-1.44-1.99-.19-.29-.41-.62-.44-.95-.26-2.51-.59-5.02-.67-7.53-.1-3.43.09-6.85,1.69-10.04.64-1.28,1.06-2.68,1.46-4.06.47-1.62,1.31-2.97,2.47-4.18,1.94-2.02,3.57-4.27,4.65-6.88.1-.25.26-.47.43-.78.26,1.62.51,3.1.74,4.58.02.15,0,.33-.07.47-.27.59-.53,1.2-.87,1.75-.46.75-1,1.46-1.51,2.18-1.42,2.03-1.91,4.28-1.59,6.72.03.2.13.39.23.68.2-.18.34-.27.43-.39.71-1.02,1.37-2.07,2.12-3.06.93-1.23,1.53-2.59,1.83-4.09.1-.5.19-1.01.3-1.6,1.21,2.51-.11,9.81-2.25,12.67-.81-.19-1.65-.45-2.43.12-.72.52-1.09,1.24-1.25,2.27.86-.12,1.58-.22,2.42-.33-.25.55-.43,1-.64,1.43-1.57,3.31-2.7,6.75-2.84,10.45-.01.27-.16.58.26.79.43-.88.34-1.81.49-2.69.16-.9.27-1.82.49-2.7.21-.85.52-1.69.83-2.52.32-.86.68-1.71,1.06-2.54.37-.81.7-1.64,1.37-2.49.08,1.06.12,1.91.22,2.75.11.88.34,1.74.41,2.62.14,1.72.77,3.24,1.71,4.65.49.74.96,1.48,1.42,2.24.32.53.52,1.11.57,1.71-1.82.58-2.78,2.04-2.48,3.73,1.01-.31,1.79-1,2.72-1.72-.07.57-.13.99-.17,1.4-.07.78-.21,1.57-.18,2.35.06,1.47-.61,2.49-1.76,3.29-.4.28-.84.53-1.18.87-1.05,1.03-2.4,1.86-2.42,3.62,0,.53-.5.84-1.01.96-.69.16-1.4.17-1.97-.31-1.34-1.14-2.97-3.21-1.79-5.61.15-.3.23-.64.35-.95-.08-.03-.17-.06-.25-.08-1.05.94-1.21,2.22-1.17,3.68-.95-.83-1.88-1.34-3.03-.63.28.61.57,1.16.78,1.74.36.98,1.07,1.55,2.06,1.54,1.12-.01,2.03.27,2.97.92,1.26.88,3.72.14,3.64-1.8-.02-.4.25-.89.52-1.21.98-1.15,2.15-2.1,3.63-2.88-.44,1.62.55,2.83.88,4.26.16-.08.28-.11.32-.17,1.01-1.85,1.21-3.73.14-5.62-.2-.36-.33-.7-.28-1.1.13-1.1.21-2.21.38-3.31.32-2.07-.05-3.97-1.25-5.7-.34-.48-.66-.98-.99-1.46-.9-1.32-1.5-2.75-1.64-4.37-.08-.94-.34-1.87-.43-2.82-.1-.94-.14-1.89-.11-2.84.02-.84.88-2.65,1.46-3.26.19,1.66.86,3.06,1.95,4.29.18-.59.23-1.16.32-1.72.28-1.7-.05-3.28-.98-4.7-.37-.56-.34-1.04-.24-1.64.53-3.09.96-6.18-.72-9.1-.06-.11-.1-.24-.14-.37-.58-1.56-.63-3.2-.77-4.84-.14-1.62.3-3.11.94-4.57.04-.09.14-.16.26-.29.21.9.4,1.7.57,2.49.24,1.15.78,2.14,1.54,3.03,1.62,1.89,3.38,3.64,5.34,5.2.23.18.42.5.5.79.3,1.11.55,2.22.8,3.34.08.35.1.71.12,1.06.04.98-.28,1.86-.69,2.73-.31.66-.52,1.36-.25,2.09.33.91,1.03,1.53,1.65,2.26.16-.17.25-.23.28-.32.44-1.46.69-2.93.3-4.45-.44-1.71-.89-3.43-1.33-5.14-.1-.4-.18-.81-.27-1.22,1.73,1.1,3.46,2.08,4.58,3.79-.4.89-.85,1.71-.67,2.67.16.91.25,1.85.68,2.68.08,0,.16,0,.24,0,.35-1.1.69-2.2,1.05-3.32.08.08.17.13.21.21,1.31,2.61,1.71,5.28.45,8.04-.5,1.1-.65,2.26-.6,3.45.02.33-.05.75.55.91.33-.47.69-.96,1.03-1.47.78-1.18.95-2.43.31-3.72-.18-.35-.2-.66-.13-1.03.47-2.5-.04-4.82-1.34-6.98-.15-.25-.29-.49-.44-.73.42-.03.74.09,1.06.2.35.12.71.23,1.13.36.11-.84-.32-1.38-.58-1.95-.42-.95-1.39-1.32-2.38-.99-.28.09-.54.21-.77.29-1.28-.9-2.48-1.8-3.74-2.62-.63-.41-.89-.92-.91-1.62-.03-1.24-.07-2.49-.08-3.73-.02-1.87-.55-3.55-1.88-4.92-.95-.98-1.93-1.95-2.85-2.96-.39-.43-.73-.92-.98-1.44-.29-.59-.18-1.15.26-1.72,1.08-1.41,2.47-2.42,3.97-3.32.35-.21.73-.39,1.27-.68-.38,1.24-.7,2.27-1.02,3.28.08.04.12.07.14.07.09-.03.19-.05.27-.1,1.26-.73,1.86-1.91,2.09-3.28.1-.61.41-.94.91-1.29,1.08-.74,2.12-1.54,3.09-2.41.44-.4.86-.97,1-1.53.6-2.35,2.35-3.8,3.99-5.34.03-.03.12,0,.21,0-.17.72-.42,1.44-.5,2.17-.11,1.07-.11,2.15-.12,3.23,0,.28.04.61.59.62.34-1.12,1.12-1.97,2.03-2.74,1.29-1.08,1.49-2.09.83-3.67-.21-.51-.4-1.03-.6-1.55.24-.2.4-.36.59-.48,2.34-1.51,4.66-3.05,7.02-4.52,2.29-1.42,4.55-2.87,6.37-4.89.12-.14.27-.24.5-.44-.13,1.9-.57,3.67-.24,5.46-1.98.96-2.54,3.23-1.16,4.79.97-.45,1.13-1.58,1.84-2.32.09.2.16.32.19.44.75,2.76,1.26,5.56,1.17,8.44-.07,2.38-.59,4.74-.25,7.09-.83.14-1.58.21-2.3.4-1.26.33-1.91,1.43-1.61,2.75,1.14-.07,2.14-.6,3.21-1.05-.15.41-.34.78-.57,1.12-1.28,1.85-2.36,3.78-2.65,6.06-.01.11-.1.21-.15.31-1.33-.44-2.15-.28-2.7.5-.57.8-.53,2.07.12,2.84.81-.63,1.62-1.27,2.54-1.99.01.64.02,1.12.04,1.6.02.45-.04.92.34,1.46q.39-5.72.99-6.51c.41.56.83,1.13,1.24,1.69.08-.02.16-.04.23-.06.07-.3.19-.59.21-.89.05-.81-.15-1.56-.56-2.25-.15-.25-.35-.49-.15-.81.35-.56.7-1.11,1.03-1.67.33-.58.64-1.17,1-1.84.58,1.48,1.12,2.84,1.67,4.24-1.47.74-1.6,1.98-1.23,3.36.16.6.36,1.19.56,1.78.05.16.18.3.4.66.45-1.44.84-2.66,1.23-3.88.03.03.12.08.15.16.62,1.83,1.42,3.63,1.79,5.51.36,1.79,1.14,3.33,1.99,4.88.08.14.26.22.53.44.3-2.43.34-4.61-1.54-6.32-.34-.31-.66-.59-.79-1.08-.58-2.16-1.41-4.23-2.46-6.2-.17-.32-.31-.65-.44-.99-.01-.03.13-.12.22-.19.05.03.09.07.14.1-.04-.04-.08-.08-.12-.11h0s0,0,0,0h-.02s.04-.14.02-.16c-.85-.74-1.07-1.77-1.31-2.79-.47-1.94-.5-3.89-.22-5.86.03-.21.09-.41.16-.7.95.94,1.82,1.8,2.97,2.35.07-.2.14-.3.13-.38-.17-1.44-.4-2.86-.99-4.19-.4-.92-1-1.7-1.86-2.24-.32-.2-.42-.44-.48-.78-.17-.97-.33-1.94-.58-2.89-.43-1.62-.92-3.21-1.38-4.82-.23-.78-.36-1.56-.02-2.51.5,1.06,1.03,1.92,1.89,2.51,1.26.88,2.52,1.76,3.79,2.63,1.05.72,2.15,1.39,3.16,2.17,1.01.77,1.8,1.77,2.51,2.85-.43.34-.77.59-1.09.86-1.72,1.42-2.02,3.29-1.6,5.34.13.66.46.73.94.27.12-.11.23-.24.33-.36.87-1.01,1.72-2.03,2.23-3.54.39,1.44.13,2.73.57,3.92.15-2.1.13-4.19-.62-6.34.55.28.92.49,1.31.65.36.15.73.28,1.11.35.35.06.65-.1.78-.46.13-.36-.12-.53-.36-.71-.59-.46-1.18-.93-1.76-1.41-.58-.49-1.19-.67-1.89-.26-.11.06-.23.09-.36.15-.47-.49-.9-.99-1.38-1.43-.49-.45-1.04-.85-1.58-1.28,2.22-1.44,2.23-3.59,1.51-5.22-1.18,1.27-2.87,2.18-2.87,4.38-1.85-1.2-3.66-2.2-5.16-3.62-.86-.82-1.32-1.92-1.13-3.12.14-.9.47-1.77.79-2.63.51-1.4.89-2.77.54-4.3-.17-.73-.05-1.57.1-2.33.39-1.95,1.24-3.72,2.33-5.38.15-.22.24-.48.36-.72-.06-.05-.12-.09-.18-.14-.31.26-.69.47-.91.79-1.44,2.16-2.26,4.55-2.54,7.14-1.31.29-2.67.32-3.65,1.36-.62.66-1.64,2.72-1.67,3.48.78,0,1.45-.36,2.14-.64.66-.27,1.35-.55,1.91-.98.56-.43.98-1.04,1.49-1.61.24.65.16,1.23-.14,1.75-.3.54-.63,1.08-1.01,1.57-1.98,2.55-4.52,4.45-7.27,6.08-.25.15-.51.27-.68.35-.66-.4-1.23-.79-1.83-1.1-.51-.27-1.02-.15-1.46.23-.43.37-.74.81-.83,1.45.86.22,1.76-.06,2.63.33-3.46,2.46-7.1,4.52-9.87,7.5-1.1-.3-2.03-.6-2.98-.81-1.35-.3-2.3.46-2.47,2,1.16.2,2.33.41,3.59.63-.25.19-.45.39-.69.53-2.23,1.35-5.99,1.71-8.73-.37-1.15-.87-2.32-1.71-3.67-2.27-.9-.38-.92-.43-.71-1.42.15-.69.23-1.36-.15-2-.36-.6-1.53-1.37-2.49-1.58.19,1.33.37,2.62.54,3.83-.65,0-1.42-.12-2.14,0-1.38.23-2.63.85-3.64,1.83-1.14,1.1-2.41,2.01-3.73,2.87-.73.48-1.47.51-2.23.12-.35-.18-.68-.4-1.03-.57-1.73-.81-3.31.04-4.16,2.06-.02.04.04.12.11.3,1.53.04,3.1.09,4.77.14-.59.71-1.29,1.16-2.09,1.46-1.51.58-3.04,1.03-4.69.89-1.58-.13-2.59.79-3.68,2.01,1.26.27,2.34.37,3.39-.09.41-.18.85-.44,1.1-.79.44-.62,1-.84,1.71-.96,1.57-.26,3.09-.71,4.24-1.89,1.2-1.23,2.6-2.19,4.03-3.11.17-.11.37-.17.56-.25.05.05.1.1.15.15-.82,1.37-1.63,2.76-2.48,4.11-1.27,2.02-3.09,3.36-5.34,4.12-.47.16-.93.35-1.4.52.01.05.02.09.04.14.56-.05,1.12-.1,1.78-.15-.76,1.21-1,2.47-1.28,3.72.15.05.22.1.27.08,2.2-.88,3.68-2.34,3.95-4.81.03-.27.13-.6.31-.76,1.63-1.43,2.76-3.22,3.77-5.11.08-.15.18-.3.28-.45.21.85.21,1.66.32,2.46.12.94.32,1.87.52,2.79.05.25.18.52.65.35-.04-1.53.73-2.73,1.72-3.88.84-.98.7-1.88-.22-2.78-.26-.25-.57-.44-.81-.71-.29-.33-.53-.7-.86-1.14.79-.55,1.42-1.08,2.13-1.46,1.24-.68,2.55-1,3.97-.49,2.04.74,4,1.61,5.77,2.9,2.93,2.15,6.09,2.36,9.37.85.18-.08.38-.13.59-.19-.16,1.31-.87,2.17-1.76,2.95-1.31,1.16-2.79,2.06-4.35,2.84-2.28,1.13-4.4,2.47-5.98,4.52-.03.04-.11.05-.14.07-.47-.27-.89-.58-1.37-.76-.88-.34-1.78-.29-2.49.38-.96.9-1,2.1-1.07,3.48,1.28-.48,2.39-.9,3.49-1.32.04.06.09.12.13.18-.11.22-.2.46-.34.66-1.09,1.62-1.75,3.43-2.37,5.26-.66,1.92-1.41,3.8-2.57,5.5-.91,1.33-1.82,2.64-2.97,3.77-.28.28-.55.56-1.02.4-1.15-.39-2.33-.68-3.44-1.14-.88-.37-1.76-.49-2.68-.4-.27.03-.57.17-.79.35-.46.39-.45.77.01,1.15.66.55,1.41.89,2.27.62.65-.2,1.26-.52,2.03-.85.58.18,1.33.4,2.28.69-.41.2-.6.31-.81.39-.92.34-1.84.69-2.77,1.01-.82.28-1.6.66-2.11,1.37-.61.85-1.12,1.76-1.65,2.67-.12.2-.11.46-.19.79.26-.04.4-.02.49-.08.89-.56,1.78-1.11,2.64-1.71.8-.55,1.39-1.3,1.74-2.21.2-.51.44-.94,1.02-1.08.51-.12.93-.55,1.47-.48-.38,1.17-.8,2.27-1.1,3.41-.85,3.25-2.49,6.05-4.9,8.36-2.33,2.22-5,4.02-7.64,5.85-.62.43-1.23.37-1.86.11-.33-.14-.64-.33-.96-.5-.97-.54-2.03-.75-3.11-.81-.92-.05-1.72.22-2.33,1.12.95.39,1.8.82,2.69,1.08.92.26,1.88.35,2.95.54-.37.19-.65.33-.94.48-1.49.74-3.11,1.01-4.72,1.31-1.25.23-2.47.07-3.7-.15-1-.18-2-.34-3.01-.43-1.43-.13-2.88-.15-4.31-.29-2.38-.22-4.44.56-6.37,1.85-1.81,1.21-3.2,2.79-4.28,4.66-.26.46-.55.79-1.13.79-.63,0-1.07.37-1.49.83-.39.42-.9.72-1.36,1.08-.11.08-.22.17-.39.31.97.17,1.02.16,3.21-.69-.11.37-.17.68-.3.96-.97,2.15-1.93,4.31-2.96,6.43-.59,1.22-1.58,2.15-2.87,2.54-1.44.43-2.93.65-4.41.9-.27.05-.59-.2-.89-.32-.51-.2-1.01-.46-1.54-.6-.42-.12-.85-.04-1.06.42.97.87,1.83,2,3.44,1.18Zm4.88,7.86c-.28.13-.45.23-.63.28-1.66.54-2.18.12-2.12-1.67,1.32.23,1.63.38,2.74,1.39Zm1.87-9.72c.23.97.45,1.86.68,2.85-1.11-.04-1.44-.36-1.34-1.27.06-.54.13-1.09.65-1.57Zm11.04-14.37c.23-.46.54-.84,1.09-.77.62.07.72.63.96,1.1-.89.16-1.13.12-2.05-.33Zm-1.1,7.19c.01,1.25-1.32,2.41-2.94,2.54.74-1.2,1.47-2.26,2.94-2.54Zm2.08,9.13c.39-1.31.8-2.38,2.09-2.77.86-.26,1.74-.46,2.61-.69.03.08.06.15.1.23-1.18,1.58-2.68,2.7-4.8,3.23Zm8.83-3.82c-1.04-1.37-1.86-2.58-2.14-4.16,1.44.76,2.28,2.33,2.14,4.16Zm6.04-4.36c.69-.89,1.53-1.07,2.53-.53-.79.51-1.62.6-2.53.53Zm-13.46,17.85s-.05-.09-.08-.13c.19-.12.37-.23.56-.35.04.06.07.12.11.18-.19.1-.39.2-.58.31Zm-.49,4.05c-.19-1.13.59-2.37,1.85-2.92-.08,1-.71,2-1.85,2.92Zm-1.76,8.07c-.1-1.28.67-2.12,2.54-2.18-.63.99-1.44,1.67-2.54,2.18Zm-4.53,7.31c0-.23,0-.44,0-.77.65.04,1.24.08,1.83.11-.47.71-1.07.88-1.83.66Zm1.22,3.38c-.19-.8.07-1.4.87-1.75-.29.58-.58,1.16-.87,1.75Zm2.11,3.48c.41.83.44,1.18.15,2.23-.54-1.04-.56-1.46-.15-2.23Zm2.74-3.35c.53,1.26.36,2.35-.16,3.42-.16-1.1-.72-2.2.16-3.42Zm4.67,6.25c.39-.91,1.14-.87,1.82-.97-.35.74-1,.89-1.82.97Zm2.07,4.85c-.72-.77-.91-2.01-.44-3.12.41,1.06.53,2.05.44,3.12Zm-2.09-.67c.22.63.13,1.1-.2,1.65-.19-.61-.18-1.09.2-1.65Zm8.23,23.63c.16.39.31.78.47,1.16-.06.03-.13.06-.19.08-.18-.38-.36-.75-.54-1.13.09-.04.18-.08.27-.12Zm-4.01-4.77c-.89-1.18-1.08-1.98-.85-3.47.6.67.94,1.99.85,3.47Zm1.17-7.74c-.93-.44-1.44-1.38-1.42-2.76.87.83,1.24,1.57,1.42,2.76Zm-2.7-.72c-.53,1.05-.96,1.91-1.4,2.8-.45-.94.03-1.98,1.4-2.8Zm8.56-4.26c-.89-.75-1.74-1.27-1.97-2.36,1.29.14,1.65.56,1.97,2.36Zm-3.81-1.21c-.67-.95-.27-1.73.1-2.5.47.83.21,1.61-.1,2.5Zm4.96-7.49c-1.19-.05-1.71-.7-2.13-1.69,1.08.16,1.63.77,2.13,1.69Zm-3.59-7.87c-1.43-.06-2.67-.37-3.65-1.6,1.26-.1,2.65.52,3.65,1.6Zm-2.91,2.79c-1.24-.97-1.73-2.4-1.36-3.77.75.57,1.26,1.96,1.36,3.77Zm-7.19-5.51c-.52-.86-.5-1.98.11-3.29.24,1.23.19,2.23-.11,3.29Zm-1.83-1.35c-.17-1.64.3-2.82,1.48-3.73-.03,1.36-.58,2.5-1.48,3.73Zm4.37-5.64c-1.38-.4-2.06-1.42-1.92-2.91,1.04.54,1.73,1.58,1.92,2.91Zm.68-9.05c-.49-.59-.77-1.11-.7-1.93.57.59.76,1.14.7,1.93Zm8.28-12.86c-.26-2.04.55-3.96,2.12-5.12-.19,1.93-.8,3.59-2.12,5.12Zm-.9-4.56c.08-.19.13-.39.23-.57,1.19-2.18,2.7-4.05,4.91-5.32.84-.48,1.56-1.17,2.34-1.76.17-.13.35-.25.53-.38-1.81,3.53-5.08,5.58-8.01,8.03Zm11.77-13.02c.51.47.64,1.03.51,1.57-.28,1.16-.66,2.29-1.03,3.53-.5-1.13-.21-3.75.52-5.1Zm1.37,8.58c.25-1.34.73-1.63,2.28-1.29-.64.8-1.33,1.25-2.28,1.29Zm.31,1.72c.18-.72.57-1.19,1.18-1.57-.24.75-.39.95-1.18,1.57Zm1.23,11.7c-.42-.61-.6-1.25-.18-2.05.44.72.4,1.37.18,2.05Zm-2.7-4.52c.28-1.45.64-1.81,1.95-2.04-.15,1.11-.99,1.51-1.95,2.04Zm1.9,12.25c.66-.16,1.32-.33,1.99-.49-.48.63-1.03.79-1.99.49Zm-9.73,6.97c.9-.83,1.68-.84,2.99.02-1.1.32-2.02.53-2.99-.02Zm5.11,2.47c-.64-1.18.02-2.7,1.76-3.7-.28,1.52-.81,2.7-1.76,3.7Zm11.63-5.28c.24-.34.46-.7.7-1.07.43.99-.1,1.85-1.49,2.17.26-.36.53-.72.79-1.1Zm-3.22,2.14c.14,1.01-.2,1.52-1.5,2.03.77-.65.51-1.74,1.5-2.03Zm2.75-9.71c-1.25-.45-1.77-1.35-1.74-3.07.96.92,2.19,1.51,1.74,3.07Zm2.98-18.47c-1.06-.6-1.43-1.28-1.75-3.16,1.26.77,1.53,1.89,1.75,3.16Zm-3.71-3.13c-.49-.79-.66-1.64-.5-2.74.66.97.69,1.83.5,2.74Zm-1.86-10.26c-.17,1.25-.84,2.05-1.88,2.74-.29-1.5.25-2.28,1.88-2.74Zm7.64-5.46c.26-1.43,1.4-1.96,2.59-1.19-.71.76-1.57,1.12-2.59,1.19Zm-6.61,24.54c.72-.05,1.26.23,1.71.76.48.58.97,1.14,1.46,1.72-1.44.59-2.62-.35-3.17-2.48Zm14.23.85c-.98-.77-1.07-2.01-.19-3.78.5,1.36.61,2.54.19,3.78Zm-.39-10.74c-.38,1.12-1.08,1.77-1.99,2.27-.24-1.36.47-2.22,1.99-2.27Zm-.76-15.6c-.92-1.42-1.18-2.95-.85-4.8,1,1.61,1.25,3.15.85,4.8Zm-3.04-12.98c.35-.51.72-1,1.07-1.5.34,3.41-1.45,5.93-3.6,8.4-.25-1.12.02-2.12.33-3.1.45-1.42,1.37-2.59,2.2-3.8Zm11.62,9.33c-1.24-.97-1.46-1.63-1.01-2.91.22-.61.45-1.21.74-1.99.74,1.74.69,3.28.26,4.9Zm6.38,3.46c.62,1.33.22,2.95-1.03,4.03-.17-1.53-.05-2.88,1.03-4.03Zm-2.57-5.73c-.66-.97-.63-2.14.09-3.34.63,1.21.29,2.24-.09,3.34Zm2.42-3.77c-1.05-.13-1.94-.61-2.47-1.3,1.36-.65,2.22-.2,2.47,1.3Zm19.19-17.52c.44.73.57,1.46.55,2.27-.92-.61-1.11-1.31-.55-2.27Zm9.08,11.62c-.91-.75-1.68-2.98-1.67-5,1.53,1.47,1.78,3.16,1.67,5Zm-4.95-11.24c.37,1.44.11,2.64-.49,3.88-.94-1.66-.81-2.93.49-3.88Zm-6.32,3.61c-.58,1.01-1.54,1.45-2.37,2.18-.32-.84-.24-1.53.29-2.08.57-.6,1.26-.58,2.08-.1Zm.67-7.59c0-.92.32-1.47,1.11-1.68.65-.18,1.33-.22,2.22-.35-.84,1.26-1.84,1.83-3.33,2.04Zm6.82-6.88c-1.42-.77-2.53-1.74-2.38-3.56.04-.5,0-1.01-.01-1.71,1.76,1.45,2.17,3.3,2.39,5.27Zm-4.92-13.37c.17,1.32-.46,2.32-1.18,3.38-.62-.61-.59-1.3-.36-1.97.24-.7.54-1.41,1.54-1.41Zm9.53,13.06c-.76-2.09.16-4.27,2.32-5.47.71,1.59-.66,4.14-2.32,5.47Zm3.52-7.24c.58.46,1.11.97,1.82,1.59-1.33-.2-2.12-1.02-3.18-1.53.56-.49.99-.36,1.36-.07Zm-3.38-7.36c.49,1.68-.34,3.21-1.94,3.56-.56-1.17.21-2.58,1.94-3.56Zm-13.17-6.85c.71-2.61,1.55-3.23,4.47-3.3-.19,1.51-1.93,2.8-4.47,3.3Zm-7.77,7.55c.41-1.35,1.32-1.38,2.51.04-.83-.01-1.66-.03-2.51-.04Zm-3.62,5.34c.27.65.56,1.24.75,1.85.32.99.13,1.84-.71,2.55-.69.58-1.32,1.24-2.07,1.96,0-.49-.02-.9,0-1.3.09-1.31.36-2.58.82-3.81.21-.56.53-.95,1.2-1.25Zm-43.42,12.16c.88-1.03,1.52-1.25,3.16-1.11-.61.99-1.89,1.43-3.16,1.11Zm5.19-4.64c.58-1.58,2.08-2.12,3.46-1.29.52.31,1.06.61,1.71.98-1.74.59-3.44.42-5.17.32Zm1.08,9.58c.13-1.85,1.11-3.05,2.82-3.91-.26,2.06-1.24,3.39-2.82,3.91Zm10.43-10.69c.59.59.64,1.08.18,1.75-.56.82-1.16,1.61-1.83,2.53-.22-1.99-.44-3.86-.09-5.87.65.59,1.22,1.06,1.73,1.58Zm5.14-7.73c1.3.67,1.52,1.37.9,2.79-.92-.75-1.11-1.33-.9-2.79Zm12.5,4.83c.47-1.19.87-1.39,2.07-1.03.71.21,1.41.44,2.15.67-.94,1.22-2.59.98-4.23.36Zm-2.61,8.84c.08.91-.21,1.54-.91,1.97.08-.77.25-1.46.91-1.97Zm-11.22,6.12c.27-1.09.2-2.13,1.23-2.59,1.01-.45,1.89-.04,2.8.74-1.24.82-2.56,1.28-4.03,1.85Zm7.98,4.23c.46.85.33,1.73-.53,3.15-.55-1.28-.28-2.26.53-3.15Zm-3.62-5.35c.4,1.59,1.57,2.53,2.55,3.61.73.81.77.82.23,1.78-.68,1.21-.57,2.38.03,3.56.07.13.2.23.42.47.45-1.24.86-2.35,1.27-3.49.77.91,1.1,2.02,1.19,3.2.07.91.04,1.83.06,2.75.01.65.03,1.3.05,2.08-.32-.25-.56-.41-.76-.61-1.28-1.26-2.49-2.59-3.82-3.8-1.68-1.52-2.22-3.48-2.46-5.61-.03-.26,0-.53-.05-.78-.24-1.27.39-2.18,1.3-3.15Zm-17.15,15.74c-.01-.38.24-.52.55-.55.91-.08,1.79,0,2.59.54-1.26.94-2.16.93-3.14,0Zm-.39,6.04c.87-1.5,1.69-2.89,3.5-3.35-.32,1.36-1.94,2.92-3.5,3.35Zm-6.65,19.96c.54-.68,1.15-1.21,2.34-1.24-.72.83-1.49,1.1-2.34,1.24Zm-7.73-7.1c1.12-.82,3.46-.36,5.17,1.01-1.92.51-3.51-.33-5.17-1.01Zm3.43,3.44c.27,1.09-.52,2.7-1.74,3.44.26-1.41.64-2.58,1.74-3.44Zm-28.65,8.18c.3-.76.73-1.04,1.47-1.08-.33.61-.84.79-1.47,1.08Zm-9.84,11.16c-.95.1-1.53-.25-2.06-.96.94-.02,1.4.51,2.06.96Z"/>
      <path class="cls-2" d="m112.91,48.47c.41,1.49,1.4,2.69,2.24,4.09.66-1.04.82-2.01.48-3.06-.34-1.06-1-1.9-1.78-2.66-.19-.19-.37-.39-.59-.62,1.62-.8,2.51-2.03,2.96-3.76-2.05.3-3.74.87-4.39,2.97-.85-.58-1.63-1.12-2.4-1.65-.72-.5-1.45-1.01-2.17-1.51.98.91,1.94,1.85,2.97,2.7,1.17.98,2.25,1.96,2.68,3.51Zm2.23,3.1c-1.07-1.46-1.83-2.9-2.12-4.59,1.46.57,2.61,2.98,2.12,4.59Zm.19-8.33c-.31,1.37-1.28,2.3-2.75,2.56,0-1.45,1-2.35,2.75-2.56Z"/>
    </g>
  </g>
</svg>