<?xml version="1.0" encoding="UTF-8"?>
<svg id="Layer_2" data-name="Layer 2" xmlns="http://www.w3.org/2000/svg" xmlns:xlink="http://www.w3.org/1999/xlink" viewBox="0 0 180.25 243.83">
  <defs>
    <style>
      .cls-1 {
        fill: url(#Degradado_sin_nombre_27);
      }
    </style>
    <linearGradient id="Degradado_sin_nombre_27" data-name="Degradado sin nombre 27" x1="-6.29" y1="21.19" x2="139.29" y2="21.19" gradientTransform="translate(31.74 113.28) rotate(-12.86)" gradientUnits="userSpaceOnUse">
      <stop offset="0" stop-color="#bc783b"/>
      <stop offset=".1" stop-color="#c17d3f"/>
      <stop offset=".24" stop-color="#d08e4a"/>
      <stop offset=".4" stop-color="#eaa95e"/>
      <stop offset=".5" stop-color="#ffc06e"/>
      <stop offset=".59" stop-color="#f9bb6b"/>
      <stop offset=".7" stop-color="#eaad63"/>
      <stop offset=".82" stop-color="#d19656"/>
      <stop offset=".95" stop-color="#ae7643"/>
      <stop offset="1" stop-color="#a0693c"/>
    </linearGradient>
  </defs>
  <g id="OBJECTS">
    <path class="cls-1" d="m124,14.55c-1.07-.59-1.97-1.13-2.9-1.61-1.62-.84-3.3-1.59-5.17-1.39-1.07.11-1.93-.12-2.86-.59-2.69-1.36-3.86-.81-4.64,2.1-.24.88-.65,1.8-.1,2.79,1.64-.45,3.3-.84,4.48-2.05,1.37-1.41,3-1.68,4.69-1.22,2.26.61,4.26,1.85,6.3,3.12-.62,1.42-1.28,2.69-1.72,4.04-.43,1.34-.63,2.75-.94,4.17-.6-.53-1.11-1.07-1.71-1.49-1.23-.86-2.61-.6-3.52.58-.79,1.03-.54,1.67.72,2.07,1.41.46,2.83.92,4.18,1.54.58.26,1.08.83,1.45,1.38,2.79,4.09,5.38,8.32,8.36,12.27,2.91,3.86,4.38,8.11,4.7,12.83.18,2.77-.31,5.47-1.78,7.83-2.39,3.84-5.08,7.47-8.13,10.83-1.02,1.13-1.83,2.45-2.74,3.69-.15.21-.31.42-.46.63-.12-.03-.23-.07-.35-.1.14-1.84.13-3.71.46-5.52.51-2.88,1.15-5.77,3.15-8.08,1.53-1.77,3.28-3.38,3.49-5.86,2.46.08,3.2-.18,3.65-1.23.42-.98.02-2.34-1.06-3.36-.92.79-1.85,1.58-2.74,2.35-.68-1.28-1.21-2.52-1.95-3.61-.74-1.09-1.66-2.07-2.56-3.04-.62-.67-1.04-1.42-.87-2.3.41-2.05-.15-3.89-.92-5.73-.32-.76-.52-1.56-.87-2.61-.42.53-.68.77-.84,1.07-1.7,3.31-1.06,6.48,1.75,8.91,2.1,1.82,4.03,3.78,4.9,6.53.75,2.36.9,4.61-1.16,6.47-.2.18-.34.41-.52.6-1.94,2.13-3.32,4.57-3.85,7.41-.38,2.04-.59,4.1-.88,6.16-.05.38-.11.75-.17,1.13-.11,0-.21,0-.32,0-.04-.56-.13-1.12-.12-1.67.03-1.12.14-2.23.17-3.35.23-6.9-2.35-12.4-8.11-16.35-1.08-.74-2.04-1.66-3.05-2.49.48-1.66.96-3.18,1.36-4.72.8-3.04-.73-5.2-2.76-7.16-.05-.05-.2,0-.48,0-1.12,2.46-1.2,5.1-.89,7.85-.44-.37-.75-.76-1.02-1.18-1.12-1.69-2.22-3.39-3.34-5.07-1.17-1.74-2.59-3.24-4.37-4.38-.25-.16-.59-.17-.89-.25.55.99,1.26,1.69,1.94,2.41.88.92,1.86,1.77,2.58,2.8,1.74,2.48,3.34,5.06,5.05,7.57.65.96,1.38,1.89,2.21,2.7,1.12,1.1,2.36,2.06,3.83,3.33-3.03-.16-5.73-.41-8.51.24,1.78,2.09,4.04,3.04,6.52,2.73,1.15-.15,2.29-.47,3.41-.79.83-.24,1.46-.09,1.94.64.41.62.86,1.22,1.22,1.87,1.86,3.35,2.7,6.94,2.34,10.76-.25,2.69,0,5.31.63,7.92.12.52.27,1.04.28,1.57,0,.54-.15,1.07-.23,1.61-1.42-2.13-2.88-3.96-5.07-5.08-.14.19-.24.27-.25.36-.03.26-.04.53-.03.79.17,2.93,1.7,5.1,3.96,6.8.52.39.78.75.74,1.43-.35,6.14.33,12.22,1.11,18.3.05.38.02.76.03,1.06-3.25-4.61-6.5-9.21-9.8-13.9.73-1.01,1.18-2.16.89-3.41-.26-1.12-.02-2.54-1.6-3.33-.36,1.49-.67,2.78-1.04,4.29-.79-1.26-1.52-2.19-2-3.23-1.4-2.99-1.64-6.25-2.02-9.47-.2-1.67.2-2.9,1.57-4.02,1.73-1.39,1.83-4.3.37-6.3-.8,1.56-1.57,3.05-2.41,4.69-1.05-3.48-2.74-6.54-4.51-9.57-.47-.8-.66-1.79-.89-2.71-.44-1.75-.76-3.54-1.23-5.29-.77-2.91-2.09-5.57-3.91-7.98-.51-.67-.89-1.44-1.28-2.2-.54-1.05-.6-2.1-.1-3.22.5-1.11.91-2.27,1.3-3.43.35-1.03.38-2.1,0-3.14-.13-.35-.43-.63-.79-1.14-.55,1.83-.9,3.35-.54,4.97.24,1.09.21,1.1-.83,2.25-.1-.68-.21-1.24-.27-1.81-.11-1.11-.11-2.24-.31-3.33-.16-.87-.4-1.79-.87-2.52-.66-1.02-1.55-1.88-2.38-2.78-.18-.19-.48-.27-.78-.44-.02,2.84,1.06,5.53,2.89,7.5.32.34.72.72.8,1.14.33,1.74.56,3.5.88,5.63-1.17-1.16-2.22-1.98-3.01-3.01-2.55-3.34-4.96-6.78-7.5-10.14-1.09-1.44-1.59-2.75-.81-4.62.86-2.06-.39-4.32-2.67-5.37-.04,1.35-.09,2.63-.13,3.91-.54-.38-.78-.85-1.1-1.26-1.53-1.98-2.99-4.02-4.65-5.87-.88-.98-1.1-1.89-.63-3.02.29-.68.68-1.32,1.07-1.94.28-.45.67-.83.94-1.28.49-.84.34-1.29-.51-1.86-.68-.46-1.22-.34-1.75.42-.75,1.07-.96,2.22-.49,3.48.3.81.29.82-.28,1.52-.97-2.13-1.17-4.41-1.38-6.68-.01-.11-.15-.21-.25-.35-.12.39-.21.72-.32,1.1-.95-.72-1.81-1.37-2.93-2.21.18,2.49,1.14,4.17,2.78,5.36,1.01.73,1.07,1.63,1.29,2.92-2.69-1.89-4.92-3.84-7.17-5.78-2.31-2-3.39-4.89-5.45-7.47-.25,1.26.32,1.89.64,2.58.32.7.66,1.39,1.06,2.25-.77-.14-1.34-.25-1.9-.35-.54-.1-1.08-.2-1.76-.32,1.53,2.27,2.98,3.19,5.27,3.51.45.06.96.18,1.3.46,2.58,2.13,5.14,4.3,7.68,6.48.28.24.48.59.92,1.17-1.85-.67-3.34-1.2-4.83-1.74-1.06-.38-1.99-.92-2.84-1.71-1.71-1.57-3.84-2.35-6.21-3.21.17.6.19,1,.38,1.27,1.48,2.15,3.38,3.67,6.12,3.83.47.03.96.03,1.41.17,1.72.56,3.44,1.14,5.13,1.77,2.47.91,4.48,2.39,5.84,4.71,1.11,1.88,2.25,3.74,3.46,5.56,1.82,2.75,3.7,5.47,5.55,8.2.21.31.35.65.53.98-1.26-.92-2.31-1.95-3.32-3.02-2.24-2.38-4.69-4.47-7.64-5.95-.57-.28-1.15-.58-1.64-.98-.34-.28-.68-.72-.74-1.13-.41-2.92-2.28-4.71-4.63-6.15-.28-.17-.63-.24-1.26-.46.49,1.19.86,2.08,1.34,3.24-1.85-1.04-3.54-1.77-5.56-1.74,1.26,1.16,2.53,2.33,3.79,3.49-2.75-.13-5.45-.35-8.16-.35-3.04,0-5.26-1.35-7.02-3.67,1.21-3.35,1.17-3.99-.43-4.96-.45.86-.9,1.72-1.4,2.68-.88-1.41-1.89-2.58-2.41-3.93-.98-2.56-2.92-3.76-5.71-4.67.38.74.54,1.22.83,1.6.79,1.02,1.73,1.88,2.95,2.37.67.27,1.13.66,1.16,1.61-1.82-.81-3.63-1.1-5.85-1.19,2.44,2.2,4.88,3.54,7.59,3.74,1.76,2.05,3.37,3.93,4.97,5.8-.05,0-.2.06-.33.03-2.8-.64-5.62-1.22-8.4-1.96-2.89-.77-5.41-2.21-7.37-4.53-.99-1.18-1.97-2.37-2.95-3.56-1.18-1.44-2.28-2.96-3.56-4.3-.63-.66-.93-1.33-1.16-2.17-.29-1.06-.67-2.15-1.28-3.04-.67-.99-1.69-1.66-3.34-1.38.8,1.28,1.49,2.37,2.17,3.45l-.24.22c-1.68-.94-3.72-1.1-5.19-2.53-.37-.36-.86-.62-1.33-.88-1.84-1.01-3.83-.99-6.09-1.02,1.21,1.77,2.95,2.18,4.78,3.03-3.03.55-5.68.81-8.36.08-2.26-.61-3.86-2.05-5.14-3.96-.1.06-.19.13-.29.19.2.61.4,1.22.62,1.91-1.32.09-2.69-.33-4.13.38,1.51,1.11,3.02,1.35,4.65,1.26.6-.03,1.3,0,1.81.28,2.59,1.41,5.33,1.71,8.21,1.38,1.85-.21,3.71-.41,5.56-.39,1.13.02,2.35.3,3.37.78,1.38.65,2.63,1.6,3.91,2.45.26.17.43.48.65.72-2.27-.73-4.37.21-6.52.14.04.24.02.39.08.44.2.17.41.33.64.45,1.85.96,3.82,1.39,5.88,1,1.35-.25,2.2.14,2.88,1.32.53.91,1.19,1.78,1.91,2.55,1.45,1.54,2.99,3.01,4.5,4.5.24.23.52.42,1.1.87-1.43.15-2.45.25-3.41.35-1.31-2.72-3.29-3.83-5.4-2.99.8.91,1.56,1.79,2.45,2.82-2.9-.13-5.06-1.66-7.4-2.66-.05.1-.1.19-.14.29,1.34.78,2.69,1.56,4.26,2.47-1.79.54-3.51.76-4.79,2.3,1.05.17,1.94.24,2.78.47,1.81.51,3.26.09,4.35-1.45.38-.55.86-.61,1.5-.64,1.9-.08,3.8-.3,5.7-.44.51-.04,1.08-.14,1.55.02,6.26,2.16,12.7,3.14,19.3,3.12,2.86-.01,5.58.73,8.34,1.32.13.03.25.16.45.3-.25.13-.42.28-.61.32-2.76.56-5.52,1.12-8.29,1.64-1.13.21-2.14-.02-3.16-.69-2.24-1.49-4.72-1.87-7.32-1-.31.1-.58.31-1.12.62,1.38.63,2.5,1.14,3.62,1.65-.53.33-1.04.45-1.54.47-1.86.05-3.72.1-5.58.08-2.77-.02-5.52-.21-8.13-1.47.67.55,1.35,1.1,2.03,1.66-.97.85-1.9,1.67-2.89,2.53,2.3.97,4.83.5,6.2-1.18.5-.62,1.01-.85,1.76-.8.48.03.96.02,1.44,0,2.5-.03,4.99-.07,7.49-.11.23,0,.46.03.86.06-1.44,1.53-2.75,2.93-3.81,5,1.75-.79,3.17-1.38,4.55-2.07,1.26-.62,2.34-1.5,3.01-2.77.29-.55.71-.7,1.27-.79,2.72-.47,5.44-.97,8.16-1.49,2.46-.48,4.87-.44,7.2.59.3.13.55.35.96.6-2.78.51-4.76,1.38-5.73,2.49,3.04.68,6.04,1.43,8.9-.24,2.77,2.62,5.43,5.14,8.23,7.79-1.63-.08-3.05-.32-4.37.35.06.2.07.32.13.39.11.11.24.22.38.29,1.45.74,2.96,1.25,4.61.9.88-.18,1.54.11,2.22.6,4.88,3.46,7.78,8.23,9.08,13.98.92,4.04,1.67,8.13,2.48,12.2.14.69.19,1.41.28,2.11-.11.02-.22.05-.32.07-.54-2.04-.92-4.13-2.33-5.82-1.42-1.69-3.3-2.67-5.36-4.04.09.64.1.89.17,1.13,1,3.55,2.93,6.49,5.97,8.62,1.22.85,1.97,1.89,2.22,3.34.08.47.21.93.33,1.4.98,3.77,2.16,7.46,4.35,10.74.78,1.16,1.49,2.36,2.24,3.55-.39.12-.58.07-.72-.05-.78-.64-1.51-1.35-2.32-1.94-.55-.4-1.19-.75-1.84-.89-.43-.09-.95.23-1.43.36.14.42.17.92.43,1.25.62.8,1.44,1.45,1.99,2.28,1.33,2.01,3.04,3.24,5.52,3.2.75-.01,1.26.35,1.7.97,1.34,1.85,2.79,3.62,4.12,5.48,2.82,3.94,5.26,8.13,7.46,12.45.13.25.2.52.31.78-.09.08-.18.16-.27.24-3.13-2.97-6.64-5.42-10.42-7.39.76-3.51-.42-5.95-3.87-6.2.32,1.56.63,3.07.98,4.78-1.06-.47-2-.83-2.89-1.28-2.9-1.44-5.91-2.75-7.92-5.46-1.29-1.73-2.57-3.49-3.17-5.61,1.93-.92,2.76-2.54,2.08-4.14-.38-.9-.85-1.8-1.91-2.29-.27.5-.48.89-.7,1.31-1.14-1.12-1.27-2.82-2.77-3.67.12,1.2.24,2.4.37,3.69-2.11-1.57-4.05-3.01-6.03-4.48.52-2.94-.16-4.71-2.48-6.05-.34,1.79-.26,3.52.26,5.39-1.66-.67-2.69-1.75-3.62-2.9-1.44-1.78-2.78-3.64-4.17-5.45-.22-.29-.41-.74-1.13-.47.87,1.39,1.69,2.7,2.59,4.12-1.34-.12-2.44-.77-3.79-.11,1.47,1.8,3.11,3.04,5.42,3,.64-.01,1.05.14,1.56.5,1.43,1,2.89,1.99,4.44,2.77,2.5,1.25,4.79,2.76,6.75,4.75.76.77,1.46,1.62,1.69,2.87-.32-.09-.48-.09-.6-.17-2.66-1.92-5.62-3.22-8.68-4.36-3.19-1.19-6.36-2.46-9.56-3.63-3.42-1.25-6.32-3.25-8.88-5.8-.52-.52-.75-1.04-.73-1.82.05-1.58.47-3.04,1.06-4.48.24-.59.52-1.17.7-1.78.08-.27.02-.8-.11-.85-.29-.11-.75-.1-.99.07-1.23.91-2.2,2.01-2.34,3.64-.04.45-.15.9-.24,1.44-2.23-2.5-2.21-11.07-1.9-16.96,3.57-2.43,4.35-4.08,3.18-6.87-1.46.89-2.61,2.04-3.35,3.61-.73-1.93-1.35-3.73-2.08-5.49-.88-2.11-2.46-3.84-4.07-4.37,1.97,2.15,3.24,4.38,4.08,6.84.85,2.49,1.46,5.02,1.16,7.7-1.29-1.83-3.05-2.9-5.26-3.9.61,3.46,1.8,6.25,4.64,8.07.53.34.96.59.95,1.3-.02,3.13.16,6.24,1.21,9.66-2.42-1.55-4.48-3.01-6.9-2.68-.69-1.09-1.34-1.98-1.83-2.95-.5-1-.82-2.08-1.25-3.21-1.48,2.4-1.01,5.03,1.2,7.07-.42,1.15-1.07,2.03-2.42,2.21-1.13.15-1.74.9-2.06,1.97-.62,2.13.36,5.24,2.14,6.63.12.09.32.09.82.23-.47-.61-.75-.92-.96-1.27-1-1.61-1.83-3.27-1.26-5.25.34-1.19.64-1.37,2.1-1.35.33,3.79,2.36,5.75,5.26,5.03-.66-.99-1.36-1.95-1.95-2.97-.6-1.05-1.08-2.17-1.6-3.23,1.01-1.73,2.01-2.2,3.82-1.79.41.09.82.23,1.22.38,1.83.68,3.38,1.81,4.75,3.17,1.28,1.27,2.44,2.65,3.67,3.97.48.51,1,.97,1.6,1.54-3.71.57-3.77.59-4.84,1.61,1.49,1.86,3.15,2.42,5.31,1.76.56-.17,1.15-.29,1.67-.55,1.22-.61,2.35-.34,3.52.14,2.31.95,4.65,1.85,6.98,2.74,4.02,1.55,8.11,2.93,11.69,5.43,1.07.74,1.94,1.59,2.46,2.83.36.88.93,1.67,1.44,2.48.34.55.74,1.07,1.2,1.72-1.48.05-2.79-.79-4.19.31,1.29.83,2.44,1.57,3.6,2.32-.99.18-1.88.12-2.76-.04-.99-.19-1.95-.56-2.95-.71-1.75-.25-3.43-.1-5.06,1.44,1.05.4,1.82.71,2.6.99,2.01.71,3.96.66,5.83-.48.34-.21.79-.29,1.2-.33,1.32-.14,2.64-.26,3.97-.32.56-.03,1.21-.04,1.69.19,3.7,1.76,7.47,3.4,11.02,5.42,4.85,2.76,9.43,5.9,12.52,10.8,1.24,1.96,2.82,3.73,4.4,5.44,1.86,2.01,3.02,4.31,3.73,6.94,1.18,4.39,2.91,8.56,5.64,12.26.26.35.43.75.71,1.26-2.47-1-4.73-1.9-6.98-2.83-.23-.09-.45-.28-.59-.49-.59-.88-1.22-1.75-1.7-2.69-.65-1.28-1.18-2.62-1.76-3.93-1.62-3.68-4.34-6.26-7.99-7.88-.3-.13-.66-.15-1.14-.26.08.44.08.7.18.92.82,1.85,1.72,3.65,2.46,5.53.92,2.33,2.3,4.31,4.13,5.99.61.57,1.24,1.12,1.96,1.77-4.49-.44-13.53-8.43-15.71-13.8.94-.96,2.01-1.91,1.89-3.47-.12-1.44-.8-2.56-2.1-3.65-.56,1.3-1.03,2.38-1.58,3.65-.56-.81-1.02-1.44-1.45-2.1-3.27-4.98-7.1-9.43-12.12-12.76-.37-.24-.66-.71-1.32-.31.86,1.33,2.23,1.99,3.32,2.95,1.12.98,2.3,1.9,3.34,2.95,1.01,1.02,1.91,2.15,2.79,3.27.92,1.17,1.8,2.38,2.64,3.61.81,1.19,1.69,2.35,2.31,4-1.54-.78-2.75-1.44-4-2.01-1.31-.59-2.7-1-3.98-1.64-2.51-1.25-5.14-1.65-7.9-1.54-1.44.06-2.87.09-4.31.09-1.01,0-1.97-.21-2.86-.65.72-3.02-.49-5.57-3.09-6.58-.43,1.67-.12,3.33.1,5.22-.73-.57-1.26-1.01-1.81-1.41-1.03-.76-2-1.61-3.11-2.22-2.09-1.15-2.95-2.95-3.08-5.22-.05-.8-.03-1.61-.21-2.38-.55-2.33-.56-4.9-2.98-6.42-.73-.46-.74-1.4-.48-2.2.35-1.09.95-2.09,2.09-2.47,2.72-.9,6.95-1.42,9.29,2.24.29.46.68.86,1.03,1.29.11-.09.22-.19.33-.28-.42-2.25-2.06-3.55-4.13-4.72,1.94-.62,3.45-1.48,3.43-3.67-1.08-.13-2.09-.18-3.07-.37-1.66-.32-3.06.17-3.88,1.56-.93,1.57-2.08,2.6-3.78,3.35-2.28,1-3.33,5.05-.57,6.57.57.31,1.03,1.09,1.24,1.75.77,2.34,1.12,4.75.95,7.47-1.88-1.98-4.4-1.62-6.66-2.36-.02.29-.09.48-.03.59,1.72,2.95,4.16,4.82,7.68,4.93.67.02,1.25.13,1.77.53,1.43,1.1,2.9,2.16,4.28,3.32,2.6,2.19,5.56,3.27,8.97,3.07.96-.06,1.91-.09,2.87-.14,2.6-.14,5.08.24,7.44,1.41,1.38.68,2.88,1.11,4.28,1.77,1.39.66,2.74,1.4,4.04,2.23,1.15.74,2.94,3.45,3.3,4.78-2.46-1.12-4.97-1.39-7.6-.92.66.75,1.41,1.3,2.12,1.9,2.12,1.81,4.6,2.7,7.35,2.6,1.08-.04,1.73.4,2.48,1.05,3.84,3.34,7.77,6.53,13.23,6.67.21,0,.42.07.63.11,2.66.5,4.98,1.82,7.36,3.01,2.37,1.18,4.06,3.04,5.55,5.15.09.13.1.33.19.6-1.43-.47-2.69-.87-3.94-1.31-1.8-.64-3.63-.72-5.51-.41-4,.66-7.91,1.63-11.72,3.03-.45.17-1.05.16-1.52.03-1.79-.52-3.56-1.11-5.32-1.7-.55-.18-1.07-.45-1.58-.73-1.39-.77-2.35-1.96-3.21-3.27-.65-.99-1.46-1.86-2.69-2.12-1.54-.32-3,.14-4.54.39.11.36.11.55.21.65,1.65,1.85,3.49,3.44,5.92,4.17,2.75.83,5.51,1.65,8.26,2.49.65.2,1.28.43,1.92.65-2.98,1.47-5.81,3.06-9.13,3.17-.89-1.3-1.65-2.62-3.14-3.19-1.4-.54-2.77-1.21-4.29-1.31-.07.11-.14.22-.21.33,1.24,1.41,2.47,2.82,3.73,4.26-.17.05-.32.13-.46.12-4.73-.39-8.78-2.08-11.55-6.15-1.11-1.62-2.59-2.81-4.29-3.74-.47-.26-1.01-.7-1.73,0,.37.85.75,1.77,1.17,2.67.98,2.09,2.58,3.37,4.91,3.56.64.05,1.08.28,1.53.69,3.07,2.76,6.72,4,10.82,4.02.46,0,.93,0,1.39,0-.31.61-.75.95-1.18,1.31-.47.39-.92.79-1.46,1.26,1.07.86,2.19.71,3.2.84,1.68.21,3.01-.82,3.39-2.47.11-.46.17-.93.24-1.31,2.33-1.01,4.59-1.92,6.79-2.98,1.09-.53,2.03-.47,3.01.1,1.75,1.01,3.51,2,5.25,3.03,2.62,1.55,5.39,2.23,8.42,1.54,2.17-.5,4.33-1.03,6.51-1.46.92-.18,1.9-.23,2.83-.15,1.07.09,1.75.71,2.18,1.81,1.04,2.69,1.28,5.48,1.26,8.31,0,.67-.07,1.34-.13,2.34-1.39-1.57-2.56-2.88-3.7-4.17-.13.08-.2.1-.21.14-.04.15-.09.31-.09.46-.05,2.37,1.08,4.19,2.8,5.67.76.65.97,1.36,1.02,2.35.12,2.12.36,4.24.74,6.32.18.95.62,2.01,1.29,2.69,2.76,2.81,3.29,6.47,4.05,10.05.01.07-.11.16-.19.29-.86-.85-1.64-1.8-2.59-2.52-1.39-1.05-2.89-1.96-4.38-2.89-.39-.24-.89-.46-1.36.3,1.27,1.41,1.79,3.21,2.09,5.13.42,2.7,1.66,3.83,4.4,4.26.88.14,1.76.31,2.65.48.07.5.15.86.16,1.22.13,4.52.31,9.04.36,13.56.04,4.38.15,8.73,1.43,12.96.09.28.11.59.19,1.07-2.52-1.78-4.62-3.89-7.39-4.93.34-3.56-2.34-6.24-5.67-5.65-.2,1.73,1.23,2.9,1.68,4.51-.36-.05-.57-.05-.77-.11-4.47-1.29-8.79-2.94-12.71-5.48-3.25-2.11-6.08-4.82-9.64-6.32.5-1.27,1.03-2.38,1.38-3.54.6-2.03-.39-3.86-2.46-4.56-.86,1.65-.97,3.49-1.25,5.34-.45-.56-.8-1.13-1.07-1.74-1.49-3.33-3.27-6.46-6.18-8.79-.14-.11-.21-.32-.3-.47,1.73-1.48,2.2-2.75,1.58-4.17-.63-1.46-2.43-2.48-4.05-2.22.2,1.65.4,3.31.62,5.2-.9-.52-1.57-.92-2.26-1.3-.64-.35-1.25-.83-2.31-.75q7.62,5.36,8.21,6.85c-1.13.1-2.26.2-3.4.3-.04.12-.08.25-.12.37.35.35.67.76,1.07,1.04,1.07.75,2.29,1.1,3.6,1.12.48,0,.97-.07,1.25.47.48.95.94,1.91,1.45,2.84.52.95,1.08,1.87,1.71,2.94-2.55-.44-4.89-.84-7.3-1.25.21-2.67-1.4-3.88-3.63-4.55-.97-.29-1.96-.51-2.94-.73-.27-.06-.56,0-1.25,0,1.61,1.84,2.99,3.41,4.36,4.98-.06.01-.21.1-.34.07-3.06-.68-6.23-1.09-9.16-2.15-2.79-1.01-5.59-1.22-8.46-1.34-.26-.01-.52.17-1.06.36,3.13,2.47,6.11,4.36,10.08,3.18.71-.21,1.38-.42,2.17-.19,3.49,1.02,7.06,1.6,10.69,1.82.58.03,1.16.12,1.74.23.05,0,.06.28.08.46-.09.04-.17.08-.26.11.09-.02.17-.05.26-.07,0,0,0,0,0,0h0v-.04c.08.06.17.18.22.16,1.74-.56,3.35,0,4.98.52,3.09.98,5.82,2.59,8.32,4.63.26.21.49.47.84.82-2.1.53-4.03,1.01-5.77,2.15.22.27.29.44.42.5,2.14.98,4.31,1.85,6.66,2.16,1.61.21,3.21.05,4.67-.69.55-.28.97-.21,1.49-.01,1.49.58,2.97,1.18,4.5,1.63,2.6.77,5.24,1.43,7.86,2.14,1.27.34,2.47.82,3.5,2.09-1.89-.2-3.53-.18-5.08.51-2.29,1.01-4.57,2.02-6.85,3.04-1.89.85-3.74,1.81-5.67,2.56-1.92.75-3.97,1-6.07,1.09-.11-.88-.18-1.56-.28-2.24-.53-3.59-2.86-5.57-6.07-6.73-1.03-.37-1.4.02-1.17,1.08.05.26.14.51.22.77.67,2.06,1.36,4.1,3.05,6.08-2.33-.68-3.91-2.12-5.93-2.51,2.8,1.98,5.71,3.71,9.33,4.47-.85.54-1.46.87-2.01,1.27-.51.37-1.01.78-1.42,1.26-.38.43-.41.98-.02,1.47.39.49.83.27,1.3.1,1.14-.44,2.28-.86,3.44-1.25,1.17-.39,1.93-1.09,1.96-2.4,0-.2.06-.4.1-.63,1.08-.24,2.13-.41,3.14-.71,1.05-.31,2.06-.73,3.11-1.11.12,4.3,3.1,6.12,5.97,6.5-.77-2.72-.61-5.82-3.66-7.68,3.22-1.57,6.14-3.24,9.38-4.12,1.86-.51,3.78-.21,5.29,1.06,1.13.95,2.06,2.15,2.99,3.3,1.51,1.89,3.09,3.57,5.52,4.37,1.16.38,2.23,1.25,3.15,2.1,2.37,2.19,4.13,4.85,5.51,7.76.19.39.46.74.69,1.11l.35-.13c-.1-.65-.07-1.36-.33-1.93-1.78-3.82-4.41-6.98-7.77-9.55.7-2.06,1.81-3.97,1.18-6.21-.4-1.41-2.4-4.56-3.42-5.25-.65,1.08-.72,2.32-.92,3.5-.19,1.15-.37,2.34-.25,3.48.12,1.14.62,2.24.98,3.43-1.11-.21-1.83-.81-2.32-1.67-.5-.87-.97-1.78-1.33-2.72-1.87-4.9-2.37-10.02-2.32-15.22,0-.47.06-.94.09-1.25,1.12-.58,2.13-1.04,3.07-1.61.81-.49,1.06-1.29.91-2.22-.15-.91-.5-1.71-1.32-2.38-1.02,1.01-1.4,2.49-2.67,3.38-.49-6.88-.28-13.67-2.09-20.03,1.34-1.27,2.55-2.31,3.64-3.46,1.55-1.62,1.29-3.58-.7-5.11-1.26,1.44-2.53,2.89-3.89,4.45-.06-.51-.16-.96-.16-1.4,0-4.23,2.68-9.75,7.87-11.81,2.18-.87,4.32-1.78,6.24-3.18,1.28-.94,1.38-.92,2.56.21.83.79,1.69,1.46,2.91,1.47,1.14.01,3.2-.97,4.29-2.12-2-.86-3.95-1.69-5.78-2.48.56-.9,1.37-1.86,1.81-2.97.85-2.11,1.04-4.36.53-6.59-.58-2.51-.75-5.04-.84-7.6-.05-1.41.52-2.47,1.71-3.2.54-.33,1.13-.61,1.66-.96,2.57-1.72,2.74-4.62.65-7.52-.04-.06-.2-.04-.51-.1-1.35,2.08-2.74,4.24-4.21,6.5-.5-1.42-.52-2.78-.27-4.13.47-2.58,1.14-5.09,2.71-7.27,1.51-2.09,1.08-4.27.31-6.8-1.43,1.52-2.49,2.93-2.73,4.78-.09.72-.11,1.55.17,2.19.49,1.13.33,2.09-.1,3.18-.95,2.4-1.62,4.89-.96,7.48.69,2.7.85,5.45.92,8.21,0,.33-.08.65-.12.98l-.34.08c-1.21-2.3-2.46-4.58-3.62-6.91-1.73-3.47-2.06-7.12-1.23-10.89.17-.79.3-1.59.45-2.38-.07-.02-.15-.04-.22-.06-.41.82-.81,1.64-1.29,2.59-1.04-2.07-2.58-3.47-4.09-4.92-.19.17-.33.23-.34.3-.63,3.79.14,7.08,3.34,9.54.35.27.73.68.8,1.08.62,3.47,2.15,6.55,3.93,9.54.15.24.26.51.39.76-1.36-.43-2.48-1.11-3.68-1.63-1.41-.62-2.87-1.12-4.32-1.64-.4-.14-.87-.19-1.04.6,2.15,1.23,3.17,3.32,3.94,5.65.65,1.98,2.02,2.56,4.05,2.04.56-.15,1.1-.42,1.67-.53.7-.13,1.42-.15,2.32-.23.1,1.56.3,2.88.24,4.19-.11,2.29-.76,4.38-2.67,5.92-2.74,2.21-5.6,4.2-8.89,5.57-5.46,2.26-8.4,6.47-9.07,12.3-.04.32-.15.63-.23.99-1.69-1.32-2.28-3.03-2.62-4.92-.51-2.81-.51-5.61-.27-8.43.35-4.12.27-8.19-1.24-12.12-.03-.08.02-.2.03-.25.76-.43,1.56-.76,2.21-1.26,1.22-.94,1.9-2.23,1.57-3.77-.44-2.08-2.08-3.16-3.94-4.42-.41,2.19-.76,4.07-1.11,5.96-.12.01-.24.02-.36.04-.21-.34-.47-.66-.63-1.02-1.34-2.87-3.29-5.31-5.3-7.73-2.11-2.53-4.08-5.16-5.47-8.2-1.08-2.38-2.13-4.75-2.73-7.3-.15-.63-.32-1.23.3-1.75,1.5-1.27,2.91-2.66,4.49-3.81,1.26-.92,2.16-2.04,2.81-3.39.19-.4.25-.94.18-1.38-.15-.96-.69-1.27-1.6-.95-1.31.45-2.42,1.22-2.78,2.63-.27,1.06-.34,2.18-.53,3.54-.73.66-1.68,1.51-2.87,2.58.07-.73.07-1.1.14-1.45.3-1.57.59-3.14.93-4.7.3-1.38.43-2.79-.12-4.09-.66-1.56-1.5-3.04-2.31-4.54-.18-.33-.55-.55-.94-.93-.16.39-.31.57-.31.75.03,1.7.04,3.41.15,5.1.1,1.57.64,3.03,1.6,4.28.54.71.94,1.4.64,2.32-.26.81-.03,1.76-.57,2.45-1.3-1.51-2.48-3.02-3.8-4.39-3.79-3.93-6.31-8.56-7.48-13.85-1.13-5.11-1.36-10.33-1.69-15.54-.08-1.22.52-2.02,1.41-2.68.47-.35.99-.62,1.5-.91,1.57-.88,2.75-2.18,3.75-3.64.84-1.23,1.14-2.58.41-4.18-1.35,1-2.66,1.8-3.77,2.83-1.14,1.05-2.08,2.32-3.23,3.64.05-.67.09-1.19.13-1.71.23-2.69,1.21-5.17,2.16-7.66.74-1.92,1.98-3.5,3.33-5.02,1.09-1.23,2.16-2.49,3.13-3.81,1.39-1.88,2.64-3.87,4.03-5.75,2.31-3.11,2.97-6.64,2.81-10.41-.15-3.53-1.19-6.79-2.86-9.86-.41-.75-.63-1.42-.15-2.23.53-.88.38-1.8.11-2.77-.25-.9-.24-1.87-.35-2.8-.03-.22-.05-.44-.1-.8-1.05,1.2-1.08,1.28-1.75,5.04-.42-.47-.8-.82-1.08-1.23-2.16-3.16-4.35-6.31-6.43-9.52-1.2-1.85-1.66-4.01-1.11-6.13.62-2.35,1.57-4.62,2.47-6.89.16-.41.78-.65,1.19-.97.71-.54,1.49-1.01,2.13-1.62.51-.49.77-1.15.31-1.83-2.02.62-4.32.86-4.54,3.79Zm-15.03.15c.06-.5.06-.81.13-1.11.65-2.75,1.68-3.13,4.11-1.53-1.42,1.64-1.9,1.94-4.24,2.64Zm11.92,10.79c-1.54-.49-2.96-.95-4.53-1.45.99-1.51,1.71-1.7,2.9-.78.69.54,1.4,1.1,1.63,2.23Zm10.66,27.43c.44.71.71,1.45.15,2.17-.62.8-1.48.47-2.33.4.52-1.38.78-1.67,2.18-2.57Zm-9.06-7.59c-1.74-1.03-2.24-3.86-1.05-6.22,1.05,2.04,1.9,3.95,1.05,6.22Zm-14.43-4.81c1.49,1.65,2.63,3.12,2.08,5.24-.37,1.42-.83,2.81-1.25,4.21-.13-.02-.27-.04-.4-.06-1.19-2.97-1.49-5.99-.43-9.39Zm-2.13,15.48c2.77-.29,5.15-.41,7.59.53-2.27,1.35-5.15,1.2-7.59-.53Zm.97,12.06c.65,1.71.19,3.03-1.39,3.96-.04-1.52.53-2.77,1.39-3.96Zm-13.46-33.73c.08,0,.17,0,.25,0,0,.36.01.71.02,1.07-.11,0-.22,0-.33,0,.02-.36.04-.71.06-1.07Zm-5.22-4.09c1.74.68,2.79,2.81,2.5,5.02-1.33-.96-2.18-2.67-2.5-5.02Zm-9.71-9.25c1.87.94,2.39,2.72.89,5.36-.84-1.71-1.11-3.41-.89-5.36Zm-6.34-12.45c.32.19.62.37,1.07.65-.6.87-1.15,1.66-1.7,2.45-.59-1.25-.32-2.23.63-3.1Zm-5.72-1.16c1.27.41,1.89,1.29,1.69,2.69-.56-.9-1.13-1.79-1.69-2.69Zm-6.62,0c-1.49-.13-2.01-.38-3.22-1.67,1.9.12,2.5.45,3.22,1.67Zm2.35,6.63c-2.19-.33-3.56-1.49-4.62-3.11,1.67.7,3.66.85,4.62,3.11Zm-12.61,1.22c.93,1.3.24,2.31-.19,3.34-.73-1.1-.4-2.13.19-3.34Zm-8.48-1.2c1.67-.35,3.56.44,4.71,2.02-1.82-.32-3.29-.99-4.71-2.02Zm2.7-2.34c-1.05-.23-1.63-.75-2.12-1.66,1.01.25,1.66.67,2.12,1.66ZM4.03,3.22c-.67-.11-1.34-.22-2.01-.33.01-.11.03-.22.04-.34.67.06,1.35.13,2.02.19-.02.16-.04.31-.06.47Zm10-1.55c2.39-.25,3.65.17,5.53,1.74-1.43.27-3.56-.37-5.53-1.74Zm9.77,8.15c1.4-.92,3.13-.83,5.04.35-1.88.51-3.22.4-5.04-.35Zm3.28-3.15c-1.02-1.62-1.84-2.94-2.71-4.31,1.69.17,2.72,1.7,2.71,4.31Zm-1.3,15.48c1.79-.6,3.23-1.35,4.94-.74-1.28,1.67-2.16,1.82-4.94.74Zm4.89-4.28c1.88-.12,2.63,1.08,3.4,2.24-1.55-.05-2.41-1.06-3.4-2.24Zm6.23,13.2c1.07-1.61,2.41-1.78,4.15-1.53-1.13,1.37-2.45,1.62-4.15,1.53Zm13.96,1.64c1.28-1.93,2.76-3.4,5.3-3.73-.93,1.84-2.95,3.24-5.3,3.73Zm-1.42-6.39c2.39-.9,4.79-.38,6.38,1.29-1.42.56-3.78.11-6.38-1.29Zm13.7-5.34c1.64,0,3.17.98,4.47,2.92-1.91-.7-3.27-1.61-4.47-2.92Zm3.42-1.4c2.43,1.15,3.67,2.8,3.94,5.2-1.86-1.19-2.99-2.91-3.94-5.2Zm4.15,10.82c1.73-1.58,3.71-1.66,5.66-.21-1.62,1-3.64,1.07-5.66.21Zm12,8.57c1.24-.18,2.19-.13,3.27.65-1.3.29-2.22.09-3.27-.65Zm10.87,22.34c3.06,1.36,5.04,4.1,5.32,7.26-2.51-1.89-4.31-4.13-5.32-7.26Zm7.09,2.59c.2.27.43.51.59.8,2.03,3.49,3.35,7.17,3.25,11.3-.04,1.57.31,3.16.48,4.74.04.35.06.7.09,1.05-3.38-5.48-3.47-11.76-4.41-17.89Zm8.16,27.32c-1.08.31-1.97.02-2.61-.61-1.37-1.37-2.62-2.85-4.04-4.42,1.99.26,5.38,2.86,6.64,5.03Zm-13.08-5.33c1.66,1.47,1.65,2.4-.13,4.25-.57-1.56-.62-2.9.13-4.25Zm-2.65-1.02c.85.86,1.18,1.8,1.19,2.97-.84-.96-.99-1.34-1.19-2.97Zm-17.28-8.14c1.19-.07,2.23.22,3,1.48-1.37.01-2.24-.59-3-1.48Zm8.55.06c1.78,1.62,1.97,2.42,1.19,4.43-1.42-1.15-1.26-2.64-1.19-4.43Zm-18.62-7.69c-.33,1.05-.66,2.1-1,3.18-.46-1.2-.23-2.09,1-3.18Zm-1.48-19.38c.4,1.96-.25,3.05-2.54,4.13.49-1.8.97-3.25,2.54-4.13Zm-7.74,5.02c2.19.1,3.73,2.3,3.66,5.56-1.87-1.67-3.06-3.4-3.66-5.56Zm-2.47,20.6c.28.62.59,1.23.9,1.88-1.73-.24-2.48-1.71-1.76-3.89.28.67.56,1.35.86,2.02Zm-.26-6.27c-1.51-.65-1.94-1.56-1.55-3.79.26,1.62,1.98,2.18,1.55,3.79Zm11.17,12c1.68-1.35,3.37-1.32,5.73.18-2.08.56-3.95,1.77-5.73-.18Zm23.14,19.7c1.72-.96,2.98-.91,5.86.24-2.14,1.1-3.91.53-5.86-.24Zm7.47-2.51c1.51,0,2.83.46,4.23,1.62-1.9.1-3.13-.59-4.23-1.62Zm15.82,6.06c-1.59-1.29-2.14-2.9-2.22-4.91,2.33.86,2.96,2.26,2.22,4.91Zm1.15,15.22c1.76,1.56,1.54,3.61-.54,4.6-.46-1.63-.23-3.12.54-4.6Zm-28.51-29.85c-.54,1.03-1.38,1.56-2.49,1.73-1.21.18-2.41.39-3.61.58.39-2.49,2.7-3.34,6.11-2.31Zm-13.16,19.05c1.89-.72,3.7.21,5.41,2.92-2.32-.45-4.04-1.3-5.41-2.92Zm15.24,8.51c-1.24-1.47-1.55-2.99-1.48-4.68,2.09.8,2.68,2.52,1.48,4.68Zm22.3,12.09c2.74-.08,5.09.85,7.38,2.87-3.09.03-5.43-.92-7.38-2.87Zm20.59,6.72c.41.91.79,1.84,1.18,2.76-5.03-2.41-7.02-7-8.63-12.08,1.77.6,2.93,1.81,4.03,3.06,1.6,1.83,2.44,4.09,3.42,6.26Zm-22.74,8.27c2.4-.91,3.49-.66,4.89,1.06.67.81,1.31,1.65,2.13,2.71-3.03-.44-5.13-1.81-7.02-3.76Zm-10.19,5.95c-2.36-.26-4.29-2.18-4.73-4.83,2.27,1.05,4.04,2.35,4.73,4.83Zm10.12,1.26c1.91-.09,3.5.92,4.56,2.94-2.22-.14-3.35-1.48-4.56-2.94Zm3.2,6.54c1.07-1.34,2.48-2.18,3.89-2.33-.24,2.44-1.59,3.25-3.89,2.33Zm8.17,41.41c-1.39,0-2.5-.44-3.61-1.15,1.62-.77,2.76-.43,3.61,1.15Zm-23.79,2.83c1.82-.63,5.55.18,8.35,1.89-3.34.89-5.89-.19-8.35-1.89Zm19.78,2.59c-2.32-.7-3.77-2.07-4.97-3.95,3.09.1,4.76,1.35,4.97,3.95Zm.31-11.81c-.92-1.65-.72-3.36-1.03-5.14,1.44.26,2.32.95,2.65,2.16.35,1.3-.25,2.24-1.62,2.98Zm9.98,7.32c1.28.79,1.77,1.68,1.4,2.96-.3,1.05-.82,2.04-1.38,3.38-1.04-2.24-.99-4.1-.02-6.35Zm3.8,15.27c2.26-1.32,4.55-2.04,6.95-.31.67.48,1.41.85,2.38,1.42-3.5,1.22-6.42.23-9.33-1.12Zm22.71,4.44c-1.98-.88-2.84-2.59-3.7-4.49,1.37-.34,2.31.28,3.04,1.16.77.92,1.51,1.95.66,3.33Zm-26.17,2.23c3.55.71,5.79,3.82,5.65,7.84-2.81-.36-5.2-4.41-5.65-7.84Zm7.09,10.98c-1.12.41-2.28.73-3.74,1.18,1.4-1.67,3.21-2.09,4.8-3.13.21,1.19-.33,1.68-1.06,1.95Zm13.07,1.51c-2.75-.74-4.17-3.18-3.31-5.69,2.09.22,3.4,2.46,3.31,5.69Zm20.61-12.51c3.02,3.19,3.18,4.87.82,8.98-1.93-1.54-2.26-5.03-.82-8.98Zm-3.94-17.16c1.52,1.71.81,3-2.17,3.45.72-1.14,1.44-2.28,2.17-3.45Zm-4.37-9.52c-1.14-.18-2.19-.27-3.21-.51-1.64-.39-2.67-1.38-2.94-3.13-.23-1.45-.61-2.88-.97-4.53.67.41,1.26.73,1.8,1.11,1.74,1.23,3.28,2.67,4.6,4.35.6.76.87,1.54.73,2.71Zm19.69-70.55c.69,2.1.46,3.16-1.13,5.32-.86-1.67-.4-3.83,1.13-5.32Zm2.07,11.12c1.71,2.14,1.2,4.68-1.12,5.9-.88.46-1.74.96-2.8,1.54.65-2.91,2.32-5.14,3.91-7.44Zm-14.22-6.58c2.47,1.74,3.31,4.11,3.06,7.21-2.64-2.1-3.67-4.57-3.06-7.21Zm6.06,23.49c-1.32.32-2.04-.02-2.59-1.22-.67-1.47-1.26-2.97-1.98-4.68,2.94,1.37,5.73,2.63,8.22,4.82-1.36.41-2.49.8-3.65,1.08Zm6.41,13.66c-2.03,1.25-3.18.95-4.64-1.1,1.81-.64,2.78-.42,4.64,1.1Zm-17.24,13.28c1.25,1.66,1.2,2.37-.32,3.74-.89.8-1.79,1.59-2.74,2.43-.9-2.33.82-4.43,3.06-6.18Zm-10.08-11.08c-1.33-.66-1.96-1.59-1.96-2.92,1,.76,1.82,1.58,1.96,2.92Zm.95-20.74c1.28,1.29,2.79,2.08,2.56,3.89-.23,1.78-1.54,2.66-3.38,3.26-.1-2.42.37-4.63.82-7.15Zm-12.6,7.52c-1.57-.08-2.68-1.01-3.93-3.39,2.24.31,3.38,1.51,3.93,3.39Zm10.48-.52c-2.54-.78-4.83.05-7.15.5-1.73.34-1.79.39-2.66-1.17-1.1-1.97-2.83-2.79-4.96-2.95-.24-.02-.48.08-1,.18,1.34,1.67,2.54,3.18,3.77,4.71-1.91.3-3.73-.18-5.45-1.05-1.32-.67-2.58-1.48-3.86-2.23-.91-.53-1.82-1.05-2.93-1.68.62-.23,1.04-.43,1.48-.54,2.83-.71,5.7-1.28,8.5-2.11,3.53-1.05,6.71-.15,9.86,1.31.39.18.73.44,1.13.59,1.97.74,2.71,2.38,3.28,4.46Zm-7.4-37.08c.53.3.52.77.3,1.22-.65,1.32-1.49,2.49-2.94,3.14-.23-2.54.53-3.78,2.64-4.36Zm-8.06-5.63c1.34,2.47,2.6,4.78,1.7,7.69-1.62-1.58-2.42-5.16-1.7-7.69Zm-22.11-26.05c.49,1.31.72,2.62-.25,4.3-.55-1.7-.28-3,.25-4.3Zm16.38-4.76c.19,2.25-2.41,5.11-5.75,6.33.91-3.1,3.41-4.6,5.75-6.33Zm-7.67,1.86c-1.74-.54-3.32-3-3.3-5.32,1.73,1.55,3.05,3.06,3.3,5.32Zm12.79-46.68c.8,1.06.82,1.89.25,2.95-.57-.98-.4-1.83-.25-2.95Zm-7.21-23.07c.66-1.4,1.63-1.91,3.07-2.05-.77,1.32-1.89,1.52-3.07,2.05Z"/>
  </g>
</svg>